<?xml version="1.0" encoding="utf-8"?>
<!-- Generator: Adobe Illustrator 19.0.0, SVG Export Plug-In . SVG Version: 6.00 Build 0)  -->
<!DOCTYPE svg PUBLIC "-//W3C//DTD SVG 1.1//EN" "http://www.w3.org/Graphics/SVG/1.1/DTD/svg11.dtd">
<svg version="1.1" id="Layer_1" xmlns="http://www.w3.org/2000/svg" xmlns:xlink="http://www.w3.org/1999/xlink" x="0px" y="0px"
	 viewBox="0 0 75 75" style="enable-background:new 0 0 75 75;" xml:space="preserve">
<style type="text/css">
	.st0{fill:none;}
	.st1{fill:#FFFFFF;}
	.st2{fill:#399847;}
</style>
<rect id="XMLID_1_" class="st0" width="75" height="75"/>
<circle id="XMLID_38_" class="st1" cx="37.5" cy="37.5" r="36.8"/>
<g id="XMLID_23_">
	<path id="XMLID_28_" d="M53.4,44.3c-0.1,0-0.3,0-0.4-0.1c-0.9-0.2-1.4-1.1-1.2-2l1.5-5.5h-7.6c-0.7,0-1.3-0.5-1.5-1.1l-1.7-5.4
		H31.8L31.6,31c-0.2,0.9-1.1,1.4-2,1.2c-0.9-0.2-1.4-1.1-1.2-2l0.5-2c0.2-0.7,0.8-1.2,1.6-1.2h13c0.7,0,1.3,0.5,1.5,1.1l1.7,5.4h8.6
		c0.5,0,1,0.2,1.3,0.6s0.4,0.9,0.3,1.4l-2,7.6C54.7,43.8,54.1,44.3,53.4,44.3z"/>
	<path id="XMLID_27_" d="M19.9,44.3c-0.2,0-0.3,0-0.5-0.1c-0.9-0.3-1.4-1.2-1.1-2l2.2-7.6c0.2-0.7,0.8-1.2,1.6-1.2h18.5
		c0.9,0,1.6,0.7,1.6,1.6s-0.7,1.6-1.6,1.6H23.3l-1.9,6.4C21.2,43.8,20.6,44.3,19.9,44.3z"/>
	<path id="XMLID_26_" d="M39.9,44.3h-5.9c-0.9,0-1.6-0.7-1.6-1.6s0.7-1.6,1.6-1.6h5.9c0.9,0,1.6,0.7,1.6,1.6S40.8,44.3,39.9,44.3z"
		/>
	<circle id="XMLID_25_" cx="26.9" cy="44.3" r="3.7"/>
	<circle id="XMLID_24_" cx="46.4" cy="44.3" r="3.7"/>
</g>
<path id="XMLID_22_" class="st2" d="M24.4,30.3H13.6c-0.9,0-1.6-0.7-1.6-1.6s0.7-1.6,1.6-1.6h10.8c0.9,0,1.6,0.7,1.6,1.6
	S25.3,30.3,24.4,30.3z"/>
<path id="XMLID_21_" class="st2" d="M16.3,36.8h-6.1c-0.9,0-1.6-0.7-1.6-1.6s0.7-1.6,1.6-1.6h6.1c0.9,0,1.6,0.7,1.6,1.6
	S17.2,36.8,16.3,36.8z"/>
<path id="XMLID_20_" class="st2" d="M14.4,43.3H7.1c-0.9,0-1.6-0.7-1.6-1.6S6.2,40,7.1,40h7.3c0.9,0,1.6,0.7,1.6,1.6
	S15.3,43.3,14.4,43.3z"/>
</svg>
