<?xml version="1.0" encoding="utf-8"?>
<!-- Generator: Adobe Illustrator 19.0.0, SVG Export Plug-In . SVG Version: 6.00 Build 0)  -->
<!DOCTYPE svg PUBLIC "-//W3C//DTD SVG 1.1//EN" "http://www.w3.org/Graphics/SVG/1.1/DTD/svg11.dtd">
<svg version="1.1" id="Layer_1" xmlns="http://www.w3.org/2000/svg" xmlns:xlink="http://www.w3.org/1999/xlink" x="0px" y="0px"
	 viewBox="0 0 75 75" style="enable-background:new 0 0 75 75;" xml:space="preserve">
<style type="text/css">
	.st0{fill:none;}
	.st1{fill:#D71573;}
	.st2{fill:#FFFFFF;stroke:#D71573;stroke-width:0.5;stroke-miterlimit:2.6131;}
</style>
<rect id="XMLID_1_" class="st0" width="75" height="75"/>
<circle id="XMLID_35_" class="st1" cx="37.5" cy="37.5" r="36.8"/>
<g id="XMLID_6_">
	<path id="XMLID_10_" class="st2" d="M32,30.3c0,0.2,0,0.3,0,0.5c0,1.4,0,2.8,0,4.1c0,1.5,0,3,0,4.5c0,0.6-0.4,1-0.9,1
		c-0.5,0-0.9-0.4-1-0.9c0-0.2,0-0.3,0-0.5c0-2.8,0-5.5,0-8.3c0-0.4-0.1-0.5-0.5-0.5c-1.8,0-3.6,0-5.3,0c-0.1,0-0.3,0-0.4,0
		c0,0.2,0,0.4,0,0.5c0,3.4,0,6.7,0,10.1c0,0.2,0,0.4,0,0.6c0.3,3.5,2.9,5.4,6.3,4.8c0.7-0.1,1.3-0.5,2-0.8c-0.1,0.6-0.5,1-1,1.3
		c-0.9,0.6-2,0.7-3,0.6c-0.8-0.1-1.6-0.3-2.4-0.5c0,1.8,0,3.7,0,5.6c2,0.6,4.1,0.8,6.1,0.4c1.6-0.3,3-1,4.2-2.2
		c1.6-1.7,2.2-3.7,2.2-6c0-4.6,0-9.3,0-13.9c0-0.4-0.1-0.5-0.5-0.5c-1.8,0-3.5,0-5.3,0C32.4,30.2,32.2,30.3,32,30.3z M16.5,24.2
		c0,0.2,0,0.4,0,0.5c0,1.4,0,2.9,0,4.3c0,4.2-0.1,8.3,0,12.5c0.1,3.6,2.8,5.8,6.2,5.3c0.8-0.1,1.5-0.3,2.1-0.8
		c-0.4-0.5-0.8-0.9-1.1-1.4c-0.7-1.1-1-2.4-1-3.7c0-5.4,0-10.8,0-16.3c0-0.2,0-0.3,0-0.5C20.7,24.2,18.7,24.2,16.5,24.2z"/>
	<path id="XMLID_9_" class="st2" d="M57.8,30.3c0,0,0,4.1,0,6.2c-0.6,0-1.2,0-1.9,0c0,0.8-0.1,1.5,0,2.3c0.2,1,0.9,1.6,2,1.7
		c0,2,0,4,0,6.2c-0.6-0.1-1.2-0.1-1.8-0.2c-3.5-0.8-6.2-3.9-6.4-7.5c-0.1-2.3,0-4.5-0.1-6.8c0-1.1-0.6-1.9-1.6-2.1
		c-1.3-0.3-2.5,0.6-2.6,1.9c-0.1,0.6,0,1.2,0,1.8c0,0.3,0,0.3,0.4,0.3c0.9,0,1.8,0,2.8,0c0,2.1,0,4.1,0,6.2c-0.1,0-0.3,0-0.4,0
		c-0.6,0-1.3,0-1.9,0c-1,0-0.8-0.1-0.8,0.8c0,1.4-0.4,2.7-1.3,3.8c-1.2,1.5-2.7,2-4.6,1.9c-0.4,0-0.3,0-0.3-0.4c0-4.8,0-9.6,0-14.4
		c0.1-4.1,3-7.4,7-8c4.1-0.7,8.2,1.9,9.3,5.9c0.1,0.3,0.1,0.5,0.2,0.5L57.8,30.3z"/>
	<path id="XMLID_8_" class="st2" d="M32,30.3c0.2,0,0.3,0,0.5,0c1.8,0,3.5,0,5.3,0c0.4,0,0.5,0.1,0.5,0.5c0,4.6,0,9.3,0,13.9
		c0,2.2-0.6,4.3-2.2,6c-1.1,1.2-2.5,1.9-4.2,2.2c-2.1,0.4-4.1,0.2-6.1-0.4c0-1.9,0-3.7,0-5.6c0.8,0.2,1.6,0.4,2.4,0.5
		c1.1,0.2,2.1,0,3-0.6c0.5-0.3,0.9-0.8,1-1.3c-0.7,0.3-1.3,0.6-2,0.8c-3.4,0.7-6-1.3-6.3-4.8c0-0.2,0-0.4,0-0.6c0-3.4,0-6.7,0-10.1
		c0-0.2,0-0.3,0-0.5c0.2,0,0.3,0,0.4,0c1.8,0,3.6,0,5.3,0c0.4,0,0.5,0.1,0.5,0.5c0,2.8,0,5.5,0,8.3c0,0.2,0,0.3,0,0.5
		c0.1,0.5,0.5,0.9,1,0.9c0.5,0,0.9-0.4,0.9-1c0-1.5,0-3,0-4.5c0-1.4,0-2.8,0-4.1C32,30.6,32,30.5,32,30.3z"/>
	<path id="XMLID_7_" class="st2" d="M16.5,24.2c2.1,0,4.2,0,6.3,0c0,0.2,0,0.4,0,0.5c0,5.4,0,10.8,0,16.3c0,1.3,0.2,2.6,1,3.7
		c0.3,0.5,0.7,0.9,1.1,1.4c-0.6,0.5-1.4,0.7-2.1,0.8c-3.4,0.5-6.1-1.8-6.2-5.3c-0.1-4.2,0-8.3,0-12.5c0-1.4,0-2.9,0-4.3
		C16.5,24.6,16.5,24.4,16.5,24.2z"/>
</g>
</svg>
