<?xml version="1.0" encoding="utf-8"?>
<!-- Generator: Adobe Illustrator 19.0.0, SVG Export Plug-In . SVG Version: 6.00 Build 0)  -->
<!DOCTYPE svg PUBLIC "-//W3C//DTD SVG 1.1//EN" "http://www.w3.org/Graphics/SVG/1.1/DTD/svg11.dtd">
<svg version="1.1" id="Layer_1" xmlns="http://www.w3.org/2000/svg" xmlns:xlink="http://www.w3.org/1999/xlink" x="0px" y="0px"
	 viewBox="0 0 75 75" style="enable-background:new 0 0 75 75;" xml:space="preserve">
<style type="text/css">
	.st0{fill:none;}
	.st1{fill:#2B2735;}
	.st2{fill:#D2D2D2;}
</style>
<rect id="XMLID_1_" class="st0" width="75" height="75"/>
<circle id="XMLID_37_" class="st1" cx="37.5" cy="37.5" r="36.8"/>
<g id="XMLID_3_">
	<path id="Stripe" class="st2" d="M54,19.9H21.5c-1.2,0-2.2,1-2.2,2.2v32.6c0,1.2,1,2.2,2.2,2.2H54c1.2,0,2.2-1,2.2-2.2V22
		C56.2,20.8,55.2,19.9,54,19.9z M54.6,54.5c0,0.3-0.3,0.6-0.6,0.6H21.5c-0.3,0-0.6-0.3-0.6-0.6V22.1c0-0.3,0.3-0.6,0.6-0.6H54
		c0.3,0,0.6,0.3,0.6,0.6V54.5z"/>
	<path id="U_1_" class="st2" d="M40.9,49.3c5.6,0,7.8-3.1,7.8-6.9V28.8c0-0.8-0.6-1.5-1.5-1.5h-7V29c0,0.7,0.5,1.5,1.5,1.5h4.1V42
		c0,4-3,4.3-4.9,4.3h-6.3c-1.8,0-4.9-0.3-4.9-4.3V30.5h5.5v-1.7c0-0.7-0.5-1.5-1.5-1.5h-5.6c-0.9,0-1.5,0.6-1.5,1.5v13.6
		c0,3.8,2.2,6.9,7.8,6.9H40.9z"/>
</g>
</svg>
