<?xml version="1.0" encoding="utf-8"?>
<!-- Generator: Adobe Illustrator 19.0.0, SVG Export Plug-In . SVG Version: 6.00 Build 0)  -->
<!DOCTYPE svg PUBLIC "-//W3C//DTD SVG 1.1//EN" "http://www.w3.org/Graphics/SVG/1.1/DTD/svg11.dtd">
<svg version="1.1" id="Layer_1" xmlns="http://www.w3.org/2000/svg" xmlns:xlink="http://www.w3.org/1999/xlink" x="0px" y="0px"
	 viewBox="0 0 75 75" style="enable-background:new 0 0 75 75;" xml:space="preserve">
<style type="text/css">
	.st0{fill:none;}
	.st1{fill:#FCB315;}
	.st2{fill:#FFFFFF;}
</style>
<rect id="XMLID_1_" class="st0" width="75" height="75"/>
<circle id="XMLID_36_" cx="37.5" cy="37.5" r="36.8"/>
<g id="XMLID_14_">
	<path id="XMLID_19_" class="st1" d="M53.4,44.3c-0.1,0-0.3,0-0.4-0.1c-0.9-0.2-1.4-1.1-1.2-2l1.5-5.5h-7.6c-0.7,0-1.3-0.5-1.5-1.1
		l-1.7-5.4H31.8L31.6,31c-0.2,0.9-1.1,1.4-2,1.2c-0.9-0.2-1.4-1.1-1.2-2l0.5-2c0.2-0.7,0.8-1.2,1.6-1.2h13c0.7,0,1.3,0.5,1.5,1.1
		l1.7,5.4h8.6c0.5,0,1,0.2,1.3,0.6s0.4,0.9,0.3,1.4l-2,7.6C54.7,43.8,54.1,44.3,53.4,44.3z"/>
	<path id="XMLID_18_" class="st1" d="M19.9,44.3c-0.2,0-0.3,0-0.5-0.1c-0.9-0.3-1.4-1.2-1.1-2l2.2-7.6c0.2-0.7,0.8-1.2,1.6-1.2h18.5
		c0.9,0,1.6,0.7,1.6,1.6s-0.7,1.6-1.6,1.6H23.3l-1.9,6.4C21.2,43.8,20.6,44.3,19.9,44.3z"/>
	<path id="XMLID_17_" class="st1" d="M39.9,44.3h-5.9c-0.9,0-1.6-0.7-1.6-1.6s0.7-1.6,1.6-1.6h5.9c0.9,0,1.6,0.7,1.6,1.6
		S40.8,44.3,39.9,44.3z"/>
	<circle id="XMLID_16_" class="st1" cx="26.9" cy="44.3" r="3.7"/>
	<circle id="XMLID_15_" class="st1" cx="46.4" cy="44.3" r="3.7"/>
</g>
<path id="XMLID_13_" class="st2" d="M39.4,26.3h-5.1c-0.9,0-1.6-0.7-1.6-1.6s0.7-1.6,1.6-1.6h5.1c0.9,0,1.6,0.7,1.6,1.6
	S40.3,26.3,39.4,26.3z"/>
</svg>
