<?xml version="1.0" encoding="utf-8"?>
<!-- Generator: Adobe Illustrator 19.0.0, SVG Export Plug-In . SVG Version: 6.00 Build 0)  -->
<!DOCTYPE svg PUBLIC "-//W3C//DTD SVG 1.1//EN" "http://www.w3.org/Graphics/SVG/1.1/DTD/svg11.dtd">
<svg version="1.1" id="Layer_1" xmlns="http://www.w3.org/2000/svg" xmlns:xlink="http://www.w3.org/1999/xlink" x="0px" y="0px"
	 viewBox="0 0 75 75" style="enable-background:new 0 0 75 75;" xml:space="preserve">
<style type="text/css">
	.st0{fill:#FFFFFF;}
	.st1{fill:#399847;}
	.st2{fill:none;}
</style>
<circle id="XMLID_24_" class="st0" cx="37.5" cy="37.5" r="36.8"/>
<g id="XMLID_10_">
	<path id="XMLID_17_" d="M46.3,23.7c0-0.6-0.3-1.2-0.8-1.5c-0.5-0.3-1.2-0.3-1.7-0.1l-13,6.7c-0.6,0.3-1,0.9-1,1.6v14.1
		c-0.2,0-0.3,0-0.5,0c-2.2,0-4,1.7-4,3.7c0,2,1.8,3.7,4,3.7s4-1.7,4-3.7c0-0.1,0-9.6,0-9.6l9.5-4.9v6.7c-0.2,0-0.3,0-0.5,0
		c-2.2,0-4,1.7-4,3.7c0,2,1.8,3.7,4,3.7s4-1.7,4-3.7C46.3,42.6,46.3,23.7,46.3,23.7z M33.3,34.6v-3.2l9.5-4.9v3.2L33.3,34.6z"/>
	<path id="XMLID_16_" class="st1" d="M23.7,43.7c-0.4,0-0.8-0.2-1.1-0.5c-3.1-3.1-3.1-8.2,0-11.4c0.6-0.6,1.7-0.6,2.3,0
		c0.6,0.6,0.6,1.7,0,2.3C23,36,23,39,24.9,40.9c0.6,0.6,0.6,1.7,0,2.3C24.5,43.5,24.1,43.7,23.7,43.7z"/>
	<path id="XMLID_15_" class="st1" d="M19.2,48.1c-0.4,0-0.8-0.2-1.1-0.5c-2.7-2.7-4.2-6.3-4.2-10.2s1.5-7.4,4.2-10.2
		c0.6-0.6,1.7-0.6,2.3,0c0.6,0.6,0.6,1.7,0,2.3c-4.3,4.3-4.3,11.4,0,15.7c0.6,0.6,0.6,1.7,0,2.3C20.1,48,19.7,48.1,19.2,48.1z"/>
	<path id="XMLID_14_" class="st1" d="M14.7,52.6c-0.4,0-0.8-0.2-1.1-0.5c-8.1-8.1-8.1-21.2,0-29.3c0.6-0.6,1.7-0.6,2.3,0
		c0.6,0.6,0.6,1.7,0,2.3C9.1,32,9.1,43,15.9,49.9c0.6,0.6,0.6,1.7,0,2.3C15.6,52.5,15.1,52.6,14.7,52.6z"/>
	<path id="XMLID_13_" class="st1" d="M51.6,43.7c-0.4,0-0.8-0.2-1.1-0.5c-0.6-0.6-0.6-1.7,0-2.3c1.9-1.9,1.9-4.9,0-6.8
		c-0.6-0.6-0.6-1.7,0-2.3c0.6-0.6,1.7-0.6,2.3,0c3.1,3.1,3.1,8.2,0,11.4C52.4,43.5,52,43.7,51.6,43.7z"/>
	<path id="XMLID_12_" class="st1" d="M56.1,48.1c-0.4,0-0.8-0.2-1.1-0.5c-0.6-0.6-0.6-1.7,0-2.3c4.3-4.3,4.3-11.4,0-15.7
		c-0.6-0.6-0.6-1.7,0-2.3c0.6-0.6,1.7-0.6,2.3,0c5.6,5.6,5.6,14.7,0,20.3C56.9,48,56.5,48.1,56.1,48.1z"/>
	<path id="XMLID_11_" class="st1" d="M60.6,52.6c-0.4,0-0.8-0.2-1.1-0.5c-0.6-0.6-0.6-1.7,0-2.3c6.8-6.8,6.8-17.9,0-24.7
		c-0.6-0.6-0.6-1.7,0-2.3c0.6-0.6,1.7-0.6,2.3,0c8.1,8.1,8.1,21.2,0,29.3C61.4,52.5,61,52.6,60.6,52.6z"/>
</g>
<rect id="XMLID_1_" class="st2" width="75" height="75"/>
</svg>
