<?xml version="1.0" encoding="utf-8"?>
<!-- Generator: Adobe Illustrator 19.0.0, SVG Export Plug-In . SVG Version: 6.00 Build 0)  -->
<!DOCTYPE svg PUBLIC "-//W3C//DTD SVG 1.1//EN" "http://www.w3.org/Graphics/SVG/1.1/DTD/svg11.dtd">
<svg version="1.1" xmlns="http://www.w3.org/2000/svg" xmlns:xlink="http://www.w3.org/1999/xlink" x="0px" y="0px"
	 viewBox="0 0 75 75" style="enable-background:new 0 0 75 75;" xml:space="preserve">
<style type="text/css">
	.st0{fill:none;}
	.st1{fill:#FFFFFF;}
	.st2{fill:#999999;}
</style>
<g id="Layer_1">
	<rect id="XMLID_1_" class="st0" width="75" height="75"/>
</g>
<g id="Capa_1">
	<circle cx="37.5" cy="37.5" r="36.8"/>
	<path class="st1" d="M50.6,51H24.2c-0.9,0-1.7-0.8-1.7-1.7v-18c0-0.9,0.8-1.7,1.7-1.7h26.4c0.9,0,1.7,0.8,1.7,1.7v18
		C52.3,50.2,51.5,51,50.6,51z M25.9,47.6h23V33h-23V47.6z"/>
	<path class="st2" d="M44.5,44.7h-14c-0.9,0-1.7-0.8-1.7-1.7s0.8-1.7,1.7-1.7h14c0.9,0,1.7,0.8,1.7,1.7S45.4,44.7,44.5,44.7z"/>
	<path class="st1" d="M27.6,32.9c-0.5,0-1.1-0.3-1.4-0.7c-0.5-0.8-0.4-1.8,0.4-2.4l12.8-9c0.8-0.5,1.8-0.4,2.4,0.4
		c0.5,0.8,0.4,1.8-0.4,2.4l-12.8,9C28.3,32.8,27.9,32.9,27.6,32.9z"/>
	<circle class="st1" cx="44.2" cy="37.3" r="1.8"/>
</g>
</svg>
