<?xml version="1.0" encoding="utf-8"?>
<!-- Generator: Adobe Illustrator 19.0.0, SVG Export Plug-In . SVG Version: 6.00 Build 0)  -->
<!DOCTYPE svg PUBLIC "-//W3C//DTD SVG 1.1//EN" "http://www.w3.org/Graphics/SVG/1.1/DTD/svg11.dtd">
<svg version="1.1" id="Layer_1" xmlns="http://www.w3.org/2000/svg" xmlns:xlink="http://www.w3.org/1999/xlink" x="0px" y="0px"
	 viewBox="0 0 75 75" style="enable-background:new 0 0 75 75;" xml:space="preserve">
<style type="text/css">
	.st0{fill:none;}
	.st1{fill:#656668;}
	.st2{fill:#FFFFFF;}
	.st3{fill-rule:evenodd;clip-rule:evenodd;fill:#FFFFFF;}
</style>
<rect id="XMLID_1_" class="st0" width="75" height="75"/>
<circle id="XMLID_36_" class="st1" cx="37.5" cy="37.5" r="36.8"/>
<g id="XMLID_24_">
	<path id="XMLID_45_" class="st2" d="M52.5,52.2c-1,0-1.7-0.8-1.7-1.7c0-1,0.8-1.7,1.7-1.7s1.7,0.8,1.7,1.7
		C54.2,51.4,53.4,52.2,52.5,52.2z M52.5,49.1c-0.7,0-1.4,0.6-1.4,1.4c0,0.7,0.6,1.4,1.4,1.4s1.4-0.6,1.4-1.4
		C53.8,49.7,53.2,49.1,52.5,49.1z M53,51.4l-0.4-0.8h-0.4v0.7h-0.4v-1.9h0.9c0.3,0,0.5,0.2,0.5,0.6c0,0.2-0.1,0.4-0.3,0.5l0.3,0.7
		L53,51.4z M52.2,50.2l0.5,0c0.1,0,0.2-0.1,0.2-0.2c0-0.1-0.1-0.2-0.2-0.2h-0.5V50.2z"/>
	<path id="XMLID_26_" class="st3" d="M52.5,42.7c-0.8,1.8-1.2,2.6-2.3,4.2c-1.5,2.2-3.5,5-6.1,5c-2.3,0-2.9-1.5-5.9-1.5
		c-3.1,0-3.7,1.5-6,1.5c-2.6,0-4.5-2.5-6-4.8c-4.1-6.2-4.5-13.5-2-17.4c1.8-2.8,4.6-4.4,7.3-4.4c2.7,0,4.4,1.5,6.7,1.5
		c2.2,0,3.5-1.5,6.6-1.5c2.4,0,4.9,1.3,6.7,3.5C45.7,32.1,46.6,40.4,52.5,42.7L52.5,42.7z"/>
	<path id="XMLID_25_" class="st3" d="M42.5,22.8c1.1-1.5,2-3.5,1.7-5.6c-1.9,0.1-4,1.3-5.3,2.9c-1.2,1.4-2.1,3.5-1.7,5.5
		C39.2,25.6,41.3,24.4,42.5,22.8L42.5,22.8z"/>
</g>
</svg>
