<?xml version="1.0" encoding="utf-8"?>
<!-- Generator: Adobe Illustrator 19.0.0, SVG Export Plug-In . SVG Version: 6.00 Build 0)  -->
<!DOCTYPE svg PUBLIC "-//W3C//DTD SVG 1.1//EN" "http://www.w3.org/Graphics/SVG/1.1/DTD/svg11.dtd">
<svg version="1.1" id="Layer_1" xmlns="http://www.w3.org/2000/svg" xmlns:xlink="http://www.w3.org/1999/xlink" x="0px" y="0px"
	 viewBox="0 0 75 75" style="enable-background:new 0 0 75 75;" xml:space="preserve">
<style type="text/css">
	.st0{fill:none;}
	.st1{fill:#005686;}
	.st2{fill:#FFFFFF;}
</style>
<rect id="XMLID_1_" class="st0" width="75" height="75"/>
<circle id="XMLID_7_" class="st1" cx="37.5" cy="37.5" r="36.8"/>
<g id="XMLID_3_">
	<path id="XMLID_4_" class="st2" d="M25.2,21.6c0.1,0,0.2,0,0.4,0c4.8,0,9.5,0,14.3,0c2,0,3.9,0.3,5.7,1c2.1,0.8,3.8,2.1,4.9,4.1
		c0.8,1.3,1.2,2.6,1.4,4.1c0.2,1.5,0.1,3-0.2,4.5c-0.7,2.9-2.5,5-5.1,6.5c-1.5,0.8-3.1,1.3-4.8,1.6c-1,0.1-2,0.2-3,0.2
		c-1.9,0-3.8,0-5.7,0c-0.1,0-0.3,0-0.4,0c0,0.1,0,0.2,0,0.3c0,1.9,0,3.7,0,5.6c0,0.4,0.1,0.7,0.4,1c0.2,0.2,0.4,0.3,0.5,0.5
		c0.5,0.5,0.8,1.1,0.8,1.8c0,0.4,0,0.8,0,1.2c-0.3,0.1-8.9,0.1-9.2,0c0-0.1,0-0.2,0-0.3c0-0.3,0-0.6,0-0.9c0-0.8,0.3-1.4,0.8-1.9
		c0.1-0.1,0.3-0.2,0.4-0.3c0.4-0.3,0.5-0.6,0.5-1.1c0-2.2,0-4.5,0-6.7c0-5.5,0-10.9,0-16.4c0-0.1,0-0.2,0-0.3c0-0.3-0.1-0.6-0.4-0.9
		c-0.2-0.2-0.4-0.3-0.6-0.5c-0.5-0.5-0.8-1.1-0.8-1.8C25.3,22.5,25.2,22.1,25.2,21.6z M32.7,38.4c0.1,0,0.2,0,0.3,0
		c2.1,0,4.2,0,6.4,0c1.2,0,2.4-0.2,3.5-0.7c1.4-0.6,2.4-1.6,3-3c0.4-1,0.5-2.1,0.3-3.2c-0.3-1.8-1.2-3.1-2.8-3.9
		c-1.1-0.6-2.3-0.8-3.5-0.8c-2.3,0-4.7,0-7,0c-0.1,0-0.1,0-0.2,0C32.7,30.7,32.7,34.5,32.7,38.4z"/>
</g>
</svg>
