<?xml version="1.0" encoding="utf-8"?>
<!-- Generator: Adobe Illustrator 19.0.0, SVG Export Plug-In . SVG Version: 6.00 Build 0)  -->
<!DOCTYPE svg PUBLIC "-//W3C//DTD SVG 1.1//EN" "http://www.w3.org/Graphics/SVG/1.1/DTD/svg11.dtd">
<svg version="1.1" id="Layer_1" xmlns="http://www.w3.org/2000/svg" xmlns:xlink="http://www.w3.org/1999/xlink" x="0px" y="0px"
	 viewBox="0 0 75 75" style="enable-background:new 0 0 75 75;" xml:space="preserve">
<style type="text/css">
	.st0{fill:none;}
	.st1{fill:#53B95E;}
	.st2{fill-rule:evenodd;clip-rule:evenodd;}
</style>
<rect id="XMLID_1_" class="st0" width="75" height="75"/>
<circle id="XMLID_7_" class="st1" cx="37.5" cy="37.5" r="36.8"/>
<g id="XMLID_3_">
	<path id="XMLID_6_" class="st2" d="M57.5,32.2c0,2-2.1,3.2-3.8,2.2c-1.2-0.7-2.4-1.3-3.6-1.8c-2.5-1-5-1.7-7.7-2.1
		c-1.8-0.3-3.7-0.5-5.5-0.6c-1.9-0.1-3.8-0.1-5.8,0c-2.2,0.1-4.4,0.4-6.5,0.8c-0.8,0.2-1.6,0.4-2.4,0.6c-0.5,0.1-1,0.1-1.4,0
		C19.8,30.9,19,30,19,28.9c0-1.1,0.6-2.1,1.7-2.4c0.8-0.3,1.5-0.4,2.3-0.6c1.9-0.4,3.9-0.7,5.9-0.9c2.1-0.2,4.2-0.3,6.3-0.2
		c5.2,0.1,10.3,0.9,15.2,2.6c2,0.7,3.9,1.6,5.8,2.6c0.7,0.4,1.1,0.9,1.3,1.7C57.4,31.8,57.5,32,57.5,32.2z"/>
	<path id="XMLID_5_" class="st2" d="M33,38.2c-3.1,0-6.3,0.4-9.4,1.3c-0.5,0.1-1,0.2-1.5,0c-0.8-0.3-1.3-1.1-1.3-2
		c0-0.9,0.6-1.7,1.4-1.9c0.9-0.3,1.8-0.5,2.6-0.7c2.2-0.5,4.4-0.7,6.7-0.8c4.8-0.2,9.5,0.4,14.1,1.9c2.3,0.7,4.6,1.7,6.7,3
		c0.1,0.1,0.2,0.1,0.3,0.2c1.1,0.7,1.2,2,0.7,2.9c-0.6,1-1.8,1.3-2.9,0.7c-0.6-0.3-1.2-0.7-1.8-1c-2.7-1.4-5.6-2.3-8.6-2.9
		C37.8,38.5,35.5,38.2,33,38.2z"/>
	<path id="XMLID_4_" class="st2" d="M33.5,42.8c3.6,0,7,0.5,10.4,1.7c1.9,0.6,3.6,1.4,5.3,2.4c0.1,0.1,0.3,0.2,0.4,0.3
		c0.7,0.5,0.9,1.5,0.4,2.2c-0.4,0.7-1.3,1-2.1,0.7c-0.2-0.1-0.3-0.2-0.4-0.2c-2.9-1.7-6-2.7-9.2-3.3c-2-0.3-4-0.4-6.1-0.3
		c-2.6,0.1-5.2,0.5-7.8,1c-0.3,0.1-0.5,0.1-0.8,0.1c-0.8,0-1.5-0.6-1.6-1.3c-0.1-0.8,0.3-1.6,1-1.9c0.2-0.1,0.3-0.1,0.5-0.1
		c2.1-0.5,4.2-0.8,6.4-1C31.1,42.9,32.3,42.9,33.5,42.8z"/>
</g>
</svg>
