<?xml version="1.0" encoding="utf-8"?>
<!-- Generator: Adobe Illustrator 19.0.0, SVG Export Plug-In . SVG Version: 6.00 Build 0)  -->
<!DOCTYPE svg PUBLIC "-//W3C//DTD SVG 1.1//EN" "http://www.w3.org/Graphics/SVG/1.1/DTD/svg11.dtd">
<svg version="1.1" id="Layer_1" xmlns="http://www.w3.org/2000/svg" xmlns:xlink="http://www.w3.org/1999/xlink" x="0px" y="0px"
	 viewBox="0 0 75 75" style="enable-background:new 0 0 75 75;" xml:space="preserve">
<style type="text/css">
	.st0{fill:none;}
	.st1{fill:#FFFFFF;}
</style>
<rect id="XMLID_1_" class="st0" width="75" height="75"/>
<circle id="XMLID_6_" class="st1" cx="37.5" cy="37.5" r="36.8"/>
<path id="XMLID_3_" d="M46.3,23.7c0-0.6-0.3-1.2-0.8-1.5c-0.5-0.3-1.2-0.3-1.7-0.1l-13,6.7c-0.6,0.3-1,0.9-1,1.6v14.1
	c-0.2,0-0.3,0-0.5,0c-2.2,0-4,1.7-4,3.7c0,2,1.8,3.7,4,3.7s4-1.7,4-3.7c0-0.1,0-9.6,0-9.6l9.5-4.9v6.7c-0.2,0-0.3,0-0.5,0
	c-2.2,0-4,1.7-4,3.7c0,2,1.8,3.7,4,3.7s4-1.7,4-3.7C46.3,42.6,46.3,23.7,46.3,23.7z M33.3,34.6v-3.2l9.5-4.9v3.2L33.3,34.6z"/>
</svg>
