<?xml version="1.0" encoding="utf-8"?>
<!-- Generator: Adobe Illustrator 19.0.0, SVG Export Plug-In . SVG Version: 6.00 Build 0)  -->
<!DOCTYPE svg PUBLIC "-//W3C//DTD SVG 1.1//EN" "http://www.w3.org/Graphics/SVG/1.1/DTD/svg11.dtd">
<svg version="1.1" id="Layer_1" xmlns="http://www.w3.org/2000/svg" xmlns:xlink="http://www.w3.org/1999/xlink" x="0px" y="0px"
	 viewBox="0 0 75 75" style="enable-background:new 0 0 75 75;" xml:space="preserve">
<style type="text/css">
	.st0{fill:none;}
	.st1{fill:#838588;}
	.st2{fill:#FFFFFF;}
</style>
<rect id="XMLID_1_" class="st0" width="75" height="75"/>
<circle id="XMLID_31_" cx="37.5" cy="37.5" r="36.8"/>
<path id="XMLID_30_" class="st1" d="M46.2,35.5c-0.6,0-1.2-0.3-1.4-0.9c-0.4-0.8-0.1-1.8,0.7-2.2l3.1-1.6c0.8-0.4,1.8-0.1,2.2,0.7
	s0.1,1.8-0.7,2.2l-3.1,1.6C46.7,35.5,46.4,35.5,46.2,35.5z"/>
<path id="XMLID_29_" class="st1" d="M28.6,35.5c-0.2,0-0.5-0.1-0.7-0.2l-3.1-1.6c-0.8-0.4-1.1-1.4-0.7-2.2s1.4-1.1,2.2-0.7l3.1,1.6
	c0.8,0.4,1.1,1.4,0.7,2.2C29.7,35.2,29.2,35.5,28.6,35.5z"/>
<path id="XMLID_6_" class="st2" d="M32.9,49.3V30.4l-13.2-6.7c-0.8-0.4-1.1-1.4-0.7-2.2c0.4-0.8,1.4-1.1,2.2-0.7L35.2,28
	c0.5,0.3,0.9,0.8,0.9,1.4v19.9c0,1.9,2.5,3,4,2.4L53,45.2V24.9l-10.8,5.5v16.3c0,0.9-0.7,1.6-1.6,1.6s-1.6-0.7-1.6-1.6V29.4
	c0-0.6,0.3-1.2,0.9-1.4l14.1-7.2c0.5-0.3,1.1-0.2,1.6,0.1s0.8,0.8,0.8,1.4v23.9c0,0.6-0.3,1.2-0.9,1.4c0,0-10.9,5.5-14.1,7.2
	C38.1,56.4,32.9,53.8,32.9,49.3z"/>
<path id="XMLID_5_" class="st2" d="M29.8,52.6c-0.2,0-0.5-0.1-0.7-0.2l-9.4-4.8c-0.5-0.3-0.9-0.8-0.9-1.4V22.3
	c0-0.9,0.7-1.6,1.6-1.6s1.6,0.7,1.6,1.6v22.9l8.5,4.3c0.8,0.4,1.1,1.4,0.7,2.2C31,52.2,30.4,52.6,29.8,52.6z"/>
<path id="XMLID_4_" class="st1" d="M46.2,41.1c-0.6,0-1.2-0.3-1.4-0.9c-0.4-0.8-0.1-1.8,0.7-2.2l3.1-1.6c0.8-0.4,1.8-0.1,2.2,0.7
	c0.4,0.8,0.1,1.8-0.7,2.2l-3.1,1.6C46.7,41.1,46.4,41.1,46.2,41.1z"/>
<path id="XMLID_3_" class="st1" d="M28.6,41.1c-0.2,0-0.5-0.1-0.7-0.2l-3.1-1.6C24,39,23.6,38,24.1,37.2s1.4-1.1,2.2-0.7l3.1,1.6
	c0.8,0.4,1.1,1.4,0.7,2.2C29.7,40.8,29.2,41.1,28.6,41.1z"/>
</svg>
