<?xml version="1.0" encoding="utf-8"?>
<!-- Generator: Adobe Illustrator 19.0.0, SVG Export Plug-In . SVG Version: 6.00 Build 0)  -->
<!DOCTYPE svg PUBLIC "-//W3C//DTD SVG 1.1//EN" "http://www.w3.org/Graphics/SVG/1.1/DTD/svg11.dtd">
<svg version="1.1" id="Layer_1" xmlns="http://www.w3.org/2000/svg" xmlns:xlink="http://www.w3.org/1999/xlink" x="0px" y="0px"
	 viewBox="0 0 75 75" style="enable-background:new 0 0 75 75;" xml:space="preserve">
<style type="text/css">
	.st0{fill:none;}
	.st1{fill:#FFFFFF;}
	.st2{fill:#EB2027;}
</style>
<rect id="XMLID_1_" class="st0" width="75" height="75"/>
<circle id="XMLID_35_" class="st1" cx="37.5" cy="37.5" r="36.8"/>
<g id="XMLID_8_">
	<path id="XMLID_21_" class="st2" d="M66.6,36.6c0,0.6,0,1.2,0,1.9c0,0,0,0.1,0,0.1c0,0.2,0,0.5,0,0.7c-0.1,1.3-0.2,2.6-0.5,3.9
		c-0.5,2.6-1.4,5-2.6,7.4c-1.5,3-3.5,5.6-5.9,7.8c-3.4,3.2-7.2,5.4-11.7,6.7c-2.2,0.7-4.5,1-6.8,1.1c-0.1,0-0.2,0-0.3,0
		c-0.6,0-1.2,0-1.9,0c0,0-0.1,0-0.1,0c-1.3,0-2.6-0.2-3.9-0.4c-2.8-0.5-5.5-1.4-8.1-2.7c-3-1.5-5.6-3.5-7.9-5.9
		c-2.8-3-4.9-6.4-6.2-10.2c-0.9-2.7-1.5-5.5-1.6-8.3c0-0.1,0-0.2,0-0.3c0-0.6,0-1.2,0-1.9c0,0,0-0.1,0-0.1c0-1.1,0.1-2.1,0.3-3.2
		c0.3-1.8,0.7-3.5,1.3-5.2c1.6-4.6,4.3-8.6,7.9-11.9c3.1-2.8,6.6-4.8,10.5-6.1c2.4-0.8,4.9-1.2,7.5-1.3c0.1,0,0.2,0,0.3,0
		c0.6,0,1.2,0,1.9,0c0,0,0.1,0,0.1,0c1.3,0,2.6,0.2,3.9,0.4c2.7,0.5,5.3,1.3,7.7,2.5c3.3,1.6,6.2,3.8,8.6,6.5
		c2.8,3.1,4.8,6.6,6.1,10.6c0.8,2.4,1.2,4.9,1.3,7.5C66.6,36.4,66.6,36.5,66.6,36.6z M37.9,61.5c13.2,0,23.9-10.6,24-23.8
		C62,24.4,51.3,13.6,38.2,13.5C24.8,13.3,14,24.1,13.9,37.2C13.7,50.7,24.6,61.5,37.9,61.5z"/>
	<path id="XMLID_13_" class="st2" d="M37.9,60.7c-12.8,0-23.3-10.4-23.2-23.3c0.1-12.7,10.5-23.2,23.4-23.1
		c12.7,0.1,23,10.5,23,23.3C61,50.4,50.6,60.7,37.9,60.7z M24.3,40.9c0.1,0,0.1,0,0.2,0.1c1.2,0.4,2.3,0.1,3-0.9
		c0.5-0.6,0.6-1.4,0.4-2.1c-0.2-1.1-0.9-1.7-2-1.8c-0.5,0-1,0.2-1.4,0.5c-0.1,0.1-0.2,0.1-0.3,0.2c0-0.3,0-0.5,0-0.7
		c-0.1,0-0.2,0-0.2,0c-0.5,0.2-0.9,0.4-1.4,0.6c-0.1,0.1-0.1,0.1-0.1,0.2c0,0,0.1,0.1,0.1,0.1c0.2,0.1,0.3,0.1,0.5,0.2
		c0.1,0,0.2,0.1,0.2,0.2c0,1.3,0,2.6,0,3.9c0,0.5,0,1.1,0,1.6c0,0.4-0.1,0.5-0.5,0.6c-0.3,0.1-0.3,0.1-0.2,0.3c0,0,0,0,0,0.1
		c0,0,0.1,0,0.1,0c0.8,0,1.6,0,2.4,0c0.1,0,0.2,0,0.2-0.1c0-0.1,0.1-0.3-0.1-0.3c-0.2,0-0.4,0-0.6-0.1c-0.3-0.1-0.4-0.2-0.4-0.5
		c0-0.5,0-1.1,0-1.6C24.3,41.2,24.3,41.1,24.3,40.9z M52.3,33.2c0,0-0.1,0-0.1,0c-0.5,0.2-1.1,0.3-1.6,0.5c-0.1,0-0.1,0.2-0.1,0.2
		c0,0.1,0,0.1,0.1,0.1c0.2,0,0.5,0.1,0.7,0.1c0,0.7,0,1.4,0,2.1c-0.3,0-0.5-0.1-0.8-0.1c-0.8-0.1-1.5,0.1-2.1,0.7
		c-0.7,0.7-0.9,1.6-0.7,2.6c0.2,0.8,0.6,1.3,1.4,1.6c0.8,0.2,1.5,0.1,2.1-0.5c0,0,0,0,0.1,0c0,0.2,0,0.3,0,0.5c0,0.1,0,0.2,0.2,0.1
		c0.5-0.2,1-0.3,1.4-0.5c0,0,0.1-0.1,0.1-0.1c0-0.1,0-0.2,0-0.3c-0.3,0-0.5,0-0.7,0C52.3,37.9,52.3,35.6,52.3,33.2z M36.9,40.1
		c-0.2,0-0.4,0.1-0.6,0.1c-0.2,0-0.3,0-0.3-0.2c0-0.2,0-0.4,0-0.6c0-0.6,0-1.1,0.1-1.7c0.1-1-0.7-1.7-1.7-1.5
		c-0.6,0.1-1,0.5-1.5,0.9c0,0,0,0.1,0,0.1c0,0.2,0,0.4,0,0.6c0.3-0.1,0.5-0.1,0.8-0.2c0,0,0.1-0.1,0.1-0.1c0-0.1,0-0.2,0-0.4
		c0,0,0-0.1,0.1-0.1c0.2-0.1,0.5-0.1,0.7,0c0.4,0.1,0.5,0.3,0.5,0.7c0,0.2,0,0.4,0,0.6c0,0.2-0.1,0.2-0.2,0.3
		c-0.6,0.2-1.1,0.4-1.7,0.7c-0.3,0.1-0.5,0.4-0.4,0.7c0,0.4,0.2,0.7,0.5,1c0.4,0.3,0.7,0.4,1.2,0.1c0.2-0.1,0.4-0.3,0.6-0.4
		c0,0,0.1-0.1,0.1-0.1c0,0,0,0.1,0,0.1c0.1,0.4,0.5,0.6,0.9,0.5c0.3-0.1,0.6-0.3,0.8-0.6C37,40.3,37,40.2,36.9,40.1z M46.2,37.9
		C46.2,37.9,46.2,37.9,46.2,37.9c0.1-0.7-0.3-1.4-0.9-1.7c-0.8-0.3-1.8-0.1-2.4,0.5c-0.6,0.6-0.8,1.4-0.7,2.3
		c0.1,1.2,1.1,2.1,2.3,2.1c0.8,0,1.5-0.6,1.7-1.4c0-0.1,0-0.1-0.1-0.2c-0.1,0-0.2-0.1-0.2,0c-0.1,0.1-0.2,0.2-0.3,0.3
		c-0.5,0.4-1.4,0.5-1.9,0.1c-0.5-0.4-0.8-1.2-0.6-2C44.1,37.9,45.1,37.9,46.2,37.9z M31.5,40.9c0-0.3,0-0.3-0.3-0.4
		c-0.2-0.1-0.4-0.2-0.4-0.4c0-0.1,0-0.2,0-0.3c0-2.2,0-4.3,0-6.5c0-0.2,0-0.2-0.2-0.1c-0.5,0.2-1,0.4-1.4,0.5
		c-0.1,0-0.1,0.1-0.1,0.2c0,0.1,0,0.1,0.1,0.2c0.2,0,0.3,0.1,0.5,0.1c0.1,0,0.2,0.1,0.2,0.2c0,1.8,0,3.6,0,5.3c0,0.1,0,0.1,0,0.2
		c0,0.3-0.1,0.4-0.4,0.5c-0.1,0-0.1,0-0.2,0c-0.2,0-0.1,0.2-0.1,0.3c0,0.1,0.1,0.1,0.2,0.1c0.7,0,1.4,0,2,0
		C31.3,40.9,31.4,40.9,31.5,40.9z M39.4,37c0.1,0,0.1,0,0.2,0c0.5,0,0.9,0,1.4,0c0.1,0,0.1,0,0.1-0.1c0-0.2,0.1-0.3,0.1-0.5
		c-0.6,0-1.2,0-1.9,0c0-0.3,0-0.7,0-1c-0.1,0-0.2,0-0.3,0.1c-0.1,0.2-0.3,0.3-0.5,0.4c-0.3,0.3-0.5,0.5-0.8,0.8
		c-0.1,0.1,0,0.2-0.1,0.3c0,0,0.1,0,0.2,0c0.2,0,0.3,0,0.5,0c0,0.1,0,0.1,0,0.2c0,1,0,1.9,0,2.9c0,0.5,0.2,0.8,0.7,0.9
		c0.7,0.2,1.3,0,1.9-0.5c0.2-0.1,0.2-0.2,0.1-0.4c0,0-0.1,0-0.1,0c-0.3,0.1-0.6,0.1-1,0.2c-0.4,0-0.6-0.2-0.6-0.6c0-0.9,0-1.7,0-2.6
		C39.4,37.1,39.4,37,39.4,37z"/>
	<path id="XMLID_12_" class="st2" d="M24.3,38.4c0-0.3,0-0.7,0-1c0-0.1,0-0.1,0.1-0.1c0.5-0.3,1-0.4,1.5-0.3c0.6,0.2,1,0.6,1.1,1.3
		c0.1,0.5,0.1,1.1-0.1,1.6c-0.5,1-1.7,1-2.3,0.3c-0.2-0.2-0.3-0.5-0.3-0.7C24.3,39.1,24.3,38.7,24.3,38.4
		C24.3,38.4,24.3,38.4,24.3,38.4z"/>
	<path id="XMLID_11_" class="st2" d="M51.3,38.8c0,0.4,0,0.7,0,1.1c0,0.1-0.1,0.2-0.2,0.3c-1.1,0.6-2.3,0-2.5-1.2
		c-0.1-0.6-0.1-1.2,0.3-1.7c0.3-0.5,0.7-0.7,1.3-0.6c0.5,0.1,0.9,0.3,1.1,0.7c0,0.1,0.1,0.2,0.1,0.3C51.3,38,51.3,38.4,51.3,38.8z"
		/>
	<path id="XMLID_10_" class="st2" d="M35.1,38.9c0,0.4,0,0.8,0,1.2c0,0,0,0.1,0,0.1c-0.3,0.2-0.5,0.3-0.8,0.2
		c-0.3-0.1-0.5-0.4-0.5-0.8c0-0.1,0.1-0.2,0.1-0.2C34.2,39.2,34.6,39,35.1,38.9z"/>
	<path id="XMLID_9_" class="st2" d="M45.1,37.5c-0.6,0-1.3,0-1.9,0c0-0.4,0.5-0.8,1-0.9C44.7,36.5,45.2,36.9,45.1,37.5z"/>
</g>
</svg>
