<?xml version="1.0" encoding="utf-8"?>
<!-- Generator: Adobe Illustrator 19.0.0, SVG Export Plug-In . SVG Version: 6.00 Build 0)  -->
<!DOCTYPE svg PUBLIC "-//W3C//DTD SVG 1.1//EN" "http://www.w3.org/Graphics/SVG/1.1/DTD/svg11.dtd">
<svg version="1.1" id="Layer_1" xmlns="http://www.w3.org/2000/svg" xmlns:xlink="http://www.w3.org/1999/xlink" x="0px" y="0px"
	 viewBox="0 0 75 75" style="enable-background:new 0 0 75 75;" xml:space="preserve">
<style type="text/css">
	.st0{fill:none;}
	.st1{fill:#2E3567;}
	.st2{fill:#FFFFFF;}
</style>
<rect id="XMLID_1_" class="st0" width="75" height="75"/>
<circle id="XMLID_32_" class="st1" cx="37.5" cy="37.5" r="36.8"/>
<path id="XMLID_7_" class="st2" d="M34.1,19.1c0.1,1.4,0.2,2.8,0.3,4.2c0,0.6,0.1,1.2,0.1,1.7c0,0.2,0.1,0.3,0.3,0.3
	c1.9,0,3.8,0,5.7,0c0,0,0.1,0,0.2,0c0.1-2,0.2-4.1,0.4-6.2c0.9,0.2,1.7,0.4,2.5,0.6c0.1,0,0.2,0.3,0.2,0.4c0.1,1.5,0.1,3,0.2,4.5
	c0.1,2.9,0.5,5.7,1.8,8.3c1,2.1,2.4,3.8,4.3,5c0.3,0.2,0.3,0.4,0.3,0.7c0,3.9,0,7.7,0,11.6c0,0.5-0.1,0.8-0.5,1.1
	c-2.9,2.7-6.4,4.2-10.3,4.6c-5,0.5-9.6-0.7-13.7-3.8c-1.1-0.8-1.1-0.8-1.1-2.2c0-3.8,0-7.5,0-11.3c0-0.2,0-0.4,0.2-0.6
	c2.8-1.8,4.5-4.5,5.4-7.7c0.6-2.3,0.8-4.7,0.9-7.1c0-1,0.1-2.1,0.1-3.1c0-0.1,0.1-0.3,0.3-0.4C32.4,19.5,33.2,19.3,34.1,19.1z"/>
</svg>
