<?xml version="1.0" encoding="utf-8"?>
<!-- Generator: Adobe Illustrator 19.0.0, SVG Export Plug-In . SVG Version: 6.00 Build 0)  -->
<!DOCTYPE svg PUBLIC "-//W3C//DTD SVG 1.1//EN" "http://www.w3.org/Graphics/SVG/1.1/DTD/svg11.dtd">
<svg version="1.1" id="Layer_1" xmlns="http://www.w3.org/2000/svg" xmlns:xlink="http://www.w3.org/1999/xlink" x="0px" y="0px"
	 viewBox="0 0 75 75" style="enable-background:new 0 0 75 75;" xml:space="preserve">
<style type="text/css">
	.st0{fill:none;}
	.st1{fill:#FFFFFF;}
</style>
<rect id="XMLID_1_" class="st0" width="75" height="75"/>
<circle id="XMLID_40_" class="st1" cx="37.5" cy="37.5" r="36.8"/>
<g id="XMLID_29_">
	<path id="XMLID_31_" d="M51.1,48.8H24.7c-0.9,0-1.6-0.7-1.6-1.6s0.7-1.6,1.6-1.6h26.4c0.9,0,1.6,0.7,1.6,1.6S52,48.8,51.1,48.8z"/>
	<path id="XMLID_30_" d="M47.3,42.2h-20c-0.8,0-1.5-0.6-1.6-1.3l-1.2-6.9L17.4,30c-0.8-0.4-1.1-1.4-0.7-2.2c0.4-0.8,1.4-1.1,2.2-0.7
		l7.8,4.2c0.4,0.2,0.7,0.7,0.8,1.2l1.1,6.3h17.5l1.1-3.3H31.7c-0.9,0-1.6-0.7-1.6-1.6s0.7-1.6,1.6-1.6h17.8c0.5,0,1,0.2,1.3,0.7
		c0.3,0.4,0.4,1,0.2,1.5L48.9,41C48.7,41.7,48,42.2,47.3,42.2z"/>
</g>
</svg>
