<?xml version="1.0" encoding="utf-8"?>
<!-- Generator: Adobe Illustrator 19.0.0, SVG Export Plug-In . SVG Version: 6.00 Build 0)  -->
<!DOCTYPE svg PUBLIC "-//W3C//DTD SVG 1.1//EN" "http://www.w3.org/Graphics/SVG/1.1/DTD/svg11.dtd">
<svg version="1.1" id="Layer_1" xmlns="http://www.w3.org/2000/svg" xmlns:xlink="http://www.w3.org/1999/xlink" x="0px" y="0px"
	 viewBox="0 0 75 75" style="enable-background:new 0 0 75 75;" xml:space="preserve">
<style type="text/css">
	.st0{fill:none;}
	.st1{fill:#F7971D;}
	.st2{fill:#FFFFFF;}
</style>
<rect id="XMLID_1_" class="st0" width="75" height="75"/>
<circle id="XMLID_9_" cx="37.5" cy="37.5" r="36.8"/>
<g id="XMLID_3_">
	<path id="XMLID_5_" class="st1" d="M56.8,52.5c-5.2,3.8-12.7,5.9-19.2,5.9c-9.1,0-17.3-3.4-23.5-9c-0.5-0.4-0.1-1,0.5-0.7
		c6.7,3.9,15,6.2,23.5,6.2c5.8,0,12.1-1.2,17.9-3.7C57,50.9,57.7,51.8,56.8,52.5z"/>
	<path id="XMLID_4_" class="st1" d="M59,50c-0.7-0.9-4.4-0.4-6.1-0.2c-0.5,0.1-0.6-0.4-0.1-0.7c3-2.1,7.9-1.5,8.4-0.8
		c0.6,0.7-0.2,5.6-2.9,7.9c-0.4,0.4-0.8,0.2-0.6-0.3C58.3,54.4,59.7,50.8,59,50z"/>
</g>
<path class="st2" d="M51,43.4c-1-1.3-2-2.4-2-4.9v-8.2c0-3.5,0.3-6.7-2.3-9.1c-2.1-1.9-5.4-2.6-8-2.6c-5,0-10.6,1.9-11.8,8.1
	c-0.1,0.7,0.4,1,0.8,1.1l5.1,0.6c0.5-0.1,0.8-0.5,0.9-1c0.4-2.2,2.2-3.2,4.2-3.2c1.1,0,2.4,0.4,3,1.4c0.7,1.1,0.6,2.5,0.6,3.8v0.7
	c-3,0.3-7,0.5-9.9,1.8c-3.3,1.4-5.6,4.3-5.6,8.6c0,5.5,3.4,8.2,7.9,8.2c3.7,0,5.8-0.8,8.7-3.8c0.9,1.4,1.2,2,3,3.5
	c0.3,0.2,0.9,0.2,1.2-0.1c1.1-0.9,3-2.6,4.2-3.5C51.4,44.5,51.3,43.9,51,43.4z M41.5,35.4c0,2.1,0,3.8-1,5.6
	c-0.8,1.5-2.2,2.4-3.7,2.4c-2,0-3.2-1.5-3.2-3.8c0-4.5,4-5.3,7.9-5.3V35.4z"/>
<g>
	<path class="st2" d="M56.2,22.5c0,0.9-0.7,1.6-1.6,1.6S53,23.4,53,22.5s0.7-1.6,1.6-1.6S56.2,21.6,56.2,22.5z M53.3,22.5
		c0,0.7,0.6,1.3,1.3,1.3c0.7,0,1.3-0.6,1.3-1.3s-0.6-1.3-1.3-1.3S53.3,21.8,53.3,22.5z M54,21.6h0.6c0.2,0,0.6,0,0.6,0.5
		c0,0.3-0.2,0.4-0.3,0.4c0.2,0,0.3,0.2,0.3,0.4c0,0.1,0,0.4,0.1,0.5h-0.4c0-0.1-0.1-0.5-0.1-0.6c0-0.1-0.1-0.2-0.2-0.2h-0.3v0.7H54
		V21.6z M54.3,22.4h0.3c0.2,0,0.3-0.2,0.3-0.3c0-0.2-0.2-0.2-0.3-0.2h-0.3V22.4z"/>
</g>
</svg>
