<?xml version="1.0" encoding="utf-8"?>
<!-- Generator: Adobe Illustrator 19.0.0, SVG Export Plug-In . SVG Version: 6.00 Build 0)  -->
<!DOCTYPE svg PUBLIC "-//W3C//DTD SVG 1.1//EN" "http://www.w3.org/Graphics/SVG/1.1/DTD/svg11.dtd">
<svg version="1.1" id="Layer_1" xmlns="http://www.w3.org/2000/svg" xmlns:xlink="http://www.w3.org/1999/xlink" x="0px" y="0px"
	 viewBox="0 0 75 75" style="enable-background:new 0 0 75 75;" xml:space="preserve">
<style type="text/css">
	.st0{fill:none;}
	.st1{fill:#FFFFFF;}
	.st2{fill-rule:evenodd;clip-rule:evenodd;fill:#221F1F;}
	.st3{fill-rule:evenodd;clip-rule:evenodd;fill:#F47937;}
</style>
<rect id="XMLID_1_" class="st0" width="75" height="75"/>
<circle id="XMLID_6_" class="st1" cx="37.5" cy="37.5" r="36.8"/>
<g id="XMLID_3_">
	<path id="XMLID_5_" class="st2" d="M13.8,48c-0.3-0.1-0.6-0.3-0.9-0.5c-2.6-2.5,0.7-5.5,4.6-7.2v-4.9c0.9,0.6,1.4,0.6,1.5,0.7l3-3
		l-1-2.5c8.7-3,12.2-4.2,19.3-5.4L39,24.1l2.1-1.2c4.8,1.6,9.2,2,8.5,6c0.2-2.7-3.1-3.7-8.3-5.2l-1,0.6l1.9,1.6
		c-8.5,1.5-13.7,3.1-19.9,5.3l0.8,2.2L20,36.4c0.5,0.1,5.9,2,11.6-2c0,0,0.1-0.1,0.1-0.1c-0.2-0.3-0.6-0.6-1-1
		c1.6,0.1,2.7,1.6,2.5,3.1h-0.8c0.1-0.5,0-1-0.2-1.4c-4.3,3.2-9.4,3.7-13.8,2.2V41c-2.1,0.7-5.9,3.1-5.8,5.3
		C12.7,47.3,13.3,47.7,13.8,48L13.8,48z"/>
	<path id="XMLID_4_" class="st3" d="M31.5,47c-4.7,2.4-9.2,4.3-16.1,4.6c-9-0.2-10.4-6.2-6.1-12.4c4-6.3,10.4-12,20.6-15.6
		c2.9-1,7.3-2.2,11.5-2.3c6-0.1,11.9,1.8,11.5,7.6c-0.2,4.4-6.6,10.7-9.9,15.1c-1.5,1.9-1.7,3.2,0.8,3.1c8.9-0.6,17-3.7,24.4-6.9
		c-5,3.4-31.2,16.4-31.4,7.5c0-1.1,0.6-2.3,1.4-3.5c0.8-1.3,2-2.6,3.2-4c1.8-2,6.2-6.9,7.7-9.9c2.5-5.5-3.1-5.8-7.9-7.5L39,24.1
		l1.3,1.2c-7.1,1.2-10.6,2.4-19.3,5.4l1,2.5l-3,3c-0.1-0.1-0.5-0.1-1.5-0.7v4.9c-3.9,1.7-7.3,4.7-4.6,7.2c0.3,0.2,0.7,0.4,0.9,0.5
		c0,0,0,0,0,0C18.6,50.7,31.5,47,31.5,47L31.5,47z"/>
</g>
</svg>
