<?xml version="1.0" encoding="utf-8"?>
<!-- Generator: Adobe Illustrator 19.0.0, SVG Export Plug-In . SVG Version: 6.00 Build 0)  -->
<!DOCTYPE svg PUBLIC "-//W3C//DTD SVG 1.1//EN" "http://www.w3.org/Graphics/SVG/1.1/DTD/svg11.dtd">
<svg version="1.1" id="Layer_1" xmlns="http://www.w3.org/2000/svg" xmlns:xlink="http://www.w3.org/1999/xlink" x="0px" y="0px"
	 viewBox="0 0 75 75" style="enable-background:new 0 0 75 75;" xml:space="preserve">
<style type="text/css">
	.st0{fill:none;}
	.st1{fill:#CFA068;}
</style>
<rect id="XMLID_1_" class="st0" width="75" height="75"/>
<circle id="XMLID_10_" cx="37.5" cy="37.5" r="36.8"/>
<path id="XMLID_3_" class="st1" d="M58.2,30.2l-5.1-7.4c0,0,0,0,0,0c0-0.1-0.1-0.1-0.1-0.2c0,0-0.1-0.1-0.1-0.1
	c-0.1-0.1-0.1-0.1-0.2-0.1c0,0,0,0-0.1-0.1c-0.1-0.1-0.2-0.1-0.3-0.1c0,0,0,0,0,0c-0.1,0-0.2-0.1-0.3-0.1c0,0,0,0,0,0l-17.2-2.5
	c-0.3,0-0.5,0-0.8,0.1l-13.1,4.6c0,0,0,0,0,0c-0.1,0.1-0.3,0.1-0.4,0.2c0,0-0.1,0-0.1,0.1c-0.1,0.1-0.2,0.2-0.3,0.3c0,0,0,0,0,0
	l-5.4,7.7c-0.3,0.4-0.4,1-0.2,1.5c0.2,0.5,0.6,0.9,1.1,1l4.2,1.1v11.9c0,0,0,0,0,0.1c0,0.1,0,0.1,0,0.2c0,0,0,0.1,0,0.1
	c0,0.1,0,0.1,0,0.2c0,0,0,0.1,0.1,0.1c0,0,0,0.1,0.1,0.1c0,0,0.1,0.1,0.1,0.1c0,0,0.1,0.1,0.1,0.1c0,0,0.1,0.1,0.1,0.1
	c0,0,0.1,0.1,0.1,0.1c0,0,0.1,0.1,0.1,0.1c0,0,0.1,0.1,0.1,0.1c0.1,0,0.1,0,0.2,0.1c0,0,0,0,0.1,0l17.7,5.9c0,0,0,0,0,0
	c0,0,0.1,0,0.1,0c0.1,0,0.2,0,0.4,0l0,0c0,0,0,0,0,0c0,0,0,0,0,0c0.1,0,0.3,0,0.4-0.1c0,0,0.1,0,0.1,0c0,0,0,0,0.1,0
	c0.1,0,0.2-0.1,0.2-0.1c0,0,0,0,0.1,0l12.6-7.6c0,0,0,0,0,0c0.1,0,0.1-0.1,0.1-0.1c0,0,0.1-0.1,0.1-0.1c0,0,0.1-0.1,0.1-0.1
	c0,0,0.1-0.1,0.1-0.1c0,0,0.1-0.1,0.1-0.1c0,0,0.1-0.1,0.1-0.1c0,0,0-0.1,0.1-0.1c0-0.1,0-0.1,0-0.2c0,0,0-0.1,0-0.1
	c0-0.1,0-0.1,0-0.2c0,0,0,0,0,0V34.7l4.2-2c0.4-0.2,0.7-0.6,0.9-1S58.5,30.6,58.2,30.2z M34.7,22.9l11.5,1.7L39,28l-11.6-2.5
	L34.7,22.9z M22.1,27.6l14.3,3.1l-3.9,5.5l-13.8-3.7L22.1,27.6z M32.7,39.7c0.1,0,0.3,0.1,0.4,0.1c0.5,0,1-0.2,1.3-0.7l3.1-4.3v17
	L23,47v-9.9L32.7,39.7z M50.1,45.6l-9.3,5.6V36.5l1,2c0.4,0.8,1.4,1.1,2.2,0.7l6.2-3V45.6z M44,35.6l-2.6-5.1l9.8-4.7l3.3,4.7
	L44,35.6z"/>
</svg>
