<?xml version="1.0" encoding="utf-8"?>
<!-- Generator: Adobe Illustrator 19.0.0, SVG Export Plug-In . SVG Version: 6.00 Build 0)  -->
<!DOCTYPE svg PUBLIC "-//W3C//DTD SVG 1.1//EN" "http://www.w3.org/Graphics/SVG/1.1/DTD/svg11.dtd">
<svg version="1.1" id="Layer_1" xmlns="http://www.w3.org/2000/svg" xmlns:xlink="http://www.w3.org/1999/xlink" x="0px" y="0px"
	 viewBox="0 0 75 75" style="enable-background:new 0 0 75 75;" xml:space="preserve">
<style type="text/css">
	.st0{fill:none;}
	.st1{fill:#FFFFFF;}
</style>
<rect id="XMLID_1_" class="st0" width="75" height="75"/>
<circle id="XMLID_33_" class="st1" cx="37.5" cy="37.5" r="36.8"/>
<g id="XMLID_29_">
	<path id="XMLID_32_" d="M52,30.8c-0.3-0.4-0.8-0.7-1.3-0.7h-19c-0.9,0-1.6,0.7-1.6,1.6s0.7,1.6,1.6,1.6h16.8l-0.9,2.9H31.7
		c-0.9,0-1.6,0.7-1.6,1.6s0.7,1.6,1.6,1.6h14.8l-0.9,2.9H28.3l-1.8-13.8c-0.1-0.5-0.3-0.9-0.7-1.2l-5-3.2C20,23.7,19,24,18.5,24.7
		C18,25.5,18.2,26.5,19,27l4.4,2.7l1.9,14.5c0.1,0.8,0.8,1.4,1.6,1.4h19.9c0.7,0,1.3-0.5,1.5-1.1l4-12.2
		C52.4,31.8,52.4,31.2,52,30.8z"/>
	<circle id="XMLID_31_" cx="43.4" cy="50" r="3.1"/>
	<circle id="XMLID_30_" cx="29" cy="50" r="3.1"/>
</g>
</svg>
