<?xml version="1.0" encoding="utf-8"?>
<!-- Generator: Adobe Illustrator 19.0.0, SVG Export Plug-In . SVG Version: 6.00 Build 0)  -->
<!DOCTYPE svg PUBLIC "-//W3C//DTD SVG 1.1//EN" "http://www.w3.org/Graphics/SVG/1.1/DTD/svg11.dtd">
<svg version="1.1" id="Layer_1" xmlns="http://www.w3.org/2000/svg" xmlns:xlink="http://www.w3.org/1999/xlink" x="0px" y="0px"
	 viewBox="0 0 75 75" style="enable-background:new 0 0 75 75;" xml:space="preserve">
<style type="text/css">
	.st0{fill:none;}
	.st1{fill:#FFFFFF;}
	.st2{fill:#F16722;}
</style>
<rect id="XMLID_1_" class="st0" width="75" height="75"/>
<circle id="XMLID_49_" class="st1" cx="37.5" cy="37.5" r="36.8"/>
<g id="XMLID_3_">
	<path id="XMLID_48_" d="M46.7,39.1l-5.6-9.5h-6.8l-7.6,24.1l11.7,3.7l0.1,0c0.1,0.2,0.2,0.4,0.6,0.4c0,0.2,0,0.4,0,0.5
		c0.3,0,0.5,0,0.7,0.1c0,0,0,0.1,0,0.1c-0.1,0-0.2,0-0.3,0c-0.2,0-0.4,0-0.4,0.1c-0.1,0.1-0.1,0.3-0.1,0.5c0,0.5-0.1,0.9-0.1,1.4
		c0,0.1,0,0.2,0.1,0.3c0.5,0.4,1.1,0.5,1.8,0.3c0.1,0,0.1-0.1,0.1-0.2c0-0.2,0-0.5,0-0.7c-0.1-0.6-0.3-1.3-0.4-1.9
		c-0.1-0.2-0.1-0.4,0.2-0.5c0.2-0.1,0.3-0.2,0.3-0.3l0,0L46.7,39.1z"/>
	<g id="XMLID_4_">
		<path id="XMLID_47_" class="st2" d="M49,52.6L49,52.6C49,52.5,49,52.5,49,52.6z"/>
		<g id="XMLID_41_">
			<path id="XMLID_43_" class="st2" d="M55,57.1c0.3-0.2,0.3-0.5,0.1-0.8c-0.2-0.5-0.5-1-0.4-1.6c-0.1,0.1-0.2,0.2-0.4,0.2
				c0.1-0.3,0.1-0.5,0.2-0.7c0.2-0.8,0.1-1.5-0.5-2.1c-0.3-0.3-0.7-0.6-1.1-1c-0.1,0.3,0,0.6,0.1,0.8c0.1,0.3,0.3,0.6,0.3,0.9
				c-0.1,0.2-0.2,0.5-0.3,0.7c-0.3,0.6-0.6,1.2-1,1.8c0,0-0.1,0-0.1,0c-0.1-0.3-0.3-0.7-0.4-1c-0.2-0.5-0.3-1-0.4-1.6
				c-0.1-1,0.1-2,0.5-3c0.3-0.6,0.5-1.3,0.8-1.9c-0.1,0-0.1,0-0.2,0c-0.7,0.1-1.4,0.4-1.9,1c-0.5,0.7-0.8,1.4-1,2.2
				c-0.1,0.4-0.2,0.8-0.4,1.3c0,0,0-0.1,0-0.1c-0.3,0.5-0.6,1-0.9,1.5c0,0-0.1,0-0.1,0c0.1-0.6,0.2-1.2,0.3-1.8c0,0,0,0,0.1,0
				c0,0,0,0.1,0,0.1c0.1-0.4,0.2-0.9,0.3-1.3c-0.1,0.1-0.1,0.1-0.1,0.2c0.1-0.8,0.3-1.7,0.5-2.5c0.1-0.6,0.2-1.1,0.4-1.6
				c0.4-1,1.1-1.8,1.9-2.5c0.2-0.2,0.4-0.4,0.6-0.6c0,0,0,0,0,0c0,0.1-0.1,0.1-0.1,0.2c0,0,0.1,0,0.1,0c0.1-0.2,0.3-0.5,0.3-0.7
				c0-0.5,0-1.1,0-1.6c0-0.1,0-0.3-0.1-0.5c-0.2,0.2-0.3,0.4-0.4,0.5c-0.4,0.8-1,1.2-1.8,1.4c-0.3,0.1-0.5,0.1-0.8,0.2
				c-0.7,0.2-1.4,0.5-2,1.1c-0.2,0.2-0.5,0.5-0.8,0.7c-0.1,0.1-0.2,0.1-0.3,0.1c0,0-0.1-0.1-0.1-0.1c0.2-0.4,0.3-0.8,0.5-1.2
				c0.6-0.9,0.9-2,0.8-3.1c-0.1-0.7-0.2-1.4-0.2-2.1c0-0.4,0-0.9-0.1-1.3c-0.2-1-0.2-2.1-0.1-3.1c0.1-0.9,0.2-1.9,0.4-2.8
				c0.1-0.7,0.1-1.4,0.1-2.1c0-0.9-0.4-1.8-0.1-2.7c0.1-0.3,0.2-0.7,0.3-1c0-0.1,0.2-0.2,0.2-0.3c0-0.1,0-0.2,0-0.3
				c-0.1,0-0.2-0.1-0.3-0.1c-0.1,0.1-0.2,0.2-0.3,0.2c-0.8,0.4-1.3,1-1.4,1.9c-0.2,0.9-0.3,1.8-0.4,2.7c-0.1,0.7-0.3,1.4-0.8,1.9
				c-0.1,0.1-0.2,0.2-0.3,0.2c-0.2,0.1-0.4,0.1-0.6,0.1c-0.3,0.1-0.5,0-0.7-0.2c-0.1-0.1-0.3-0.3-0.4-0.5c-0.4-0.8-0.8-1.7-1.2-2.6
				c-0.2-0.3-0.2-0.7-0.3-1.1c-0.1-0.8-0.3-1.5-0.6-2.2c-0.3-0.5-0.5-1-0.7-1.4c-0.3-0.5-0.4-1.1-0.2-1.7c0.1-0.5,0.2-1,0.2-1.5
				c-0.1-0.5-0.1-1-0.2-1.5c-0.2-1-0.8-1.8-1.5-2.5c-0.3-0.2-0.5-0.5-0.8-0.7c0,0,0,0-0.1,0.1c0,0.1,0.1,0.2,0.1,0.3
				c-0.2,0.1-0.2,0.3-0.1,0.4c0.4,0.5,0.6,1.2,0.7,1.8c0.1,0.3,0.1,0.6,0.1,0.9c-0.1,0.8-0.3,1.5-0.5,2.3c-0.2,0.9-0.6,1.7-0.5,2.6
				c0,0,0,0-0.1,0.1c-0.4-0.4-0.6-1-0.9-1.5c0,0,0,0.1,0,0.1c0,0.1,0,0.1,0.1,0.2c0.2,0.5,0.5,1,0.9,1.4c0.1,0.1,0.2,0.2,0.3,0.4
				c0,0,0,0-0.1,0c-0.8-0.6-1.1-1.6-1.5-2.5c-0.1-0.3-0.4-2.6-0.3-2.9c0,0.1,0.1,0.2,0.1,0.3c-0.1-0.8-0.1-1.5-0.4-2.2
				c-0.3-0.8-0.7-1.6-1-2.5c-0.5-1.1-0.9-2.2-0.8-3.5c0.1-0.5,0.1-1.1,0.1-1.6c0,0,0,0,0,0.1c-0.3,0.5-0.5,1-0.8,1.5
				c-0.1,0.2-0.2,0.3-0.3,0.5c-0.5,1-0.4,2.1-0.3,3.1c0.1,0.8,0.3,1.7,0.3,2.5c-0.1,0.8-0.1,1.7-0.1,2.5c-0.1,0.8-0.1,1.5,0.1,2.3
				c0.1,0.4,0.3,0.9,0.4,1.3c0.1,0.6,0.3,1.1,0.3,1.7c0.1,0.7,0.3,1.3,0.2,2c0,0.2,0.1,0.4,0,0.5c-0.2,0.2-0.3,0.5-0.4,0.8
				c0,0.1-0.1,0.2-0.1,0.4c0,0.4,0,0.4-0.4,0.5c0,0,0,0,0,0c0.2,0.3,0.1,0.7,0.1,1c0,0.1,0,0.2-0.1,0.2c-0.1,0.1-0.2,0.2-0.1,0.4
				c0,0.2,0,0.4,0.1,0.6c0.1,0.2,0,0.3-0.1,0.4c-0.4,0.6-0.9,1-1.5,1.3c-0.3,0.2-0.3,0.3-0.3,0.7c0,0.2,0.2,0.3,0.2,0.4
				c-0.1,0-0.1,0-0.1,0c-1.1-0.5-2-1.3-2.5-2.4c-0.5-1-0.5-2,0.2-2.9c0.1-0.2,0.2-0.3,0-0.4c-0.1-0.1-0.1-0.1-0.2-0.2
				c-0.2,0.1-0.4,0.2-0.5,0.3c-0.5,0.4-0.9,0.9-1,1.5c0,0.4,0,0.8,0,1.2c0.1,1.1,0.5,2.1,1,3c0.1,0.1,0.2,0.2,0.3,0.2
				c0.4,0,1.4,3,0.4,4.9c0,0.1,0,1.8-0.1,1.9c0.3,0.4,0.3,0.4-0.4,0.7c0,0,0-0.4-0.4-0.3c-0.6-0.2-1.2-1-1.4-2.4
				c-1.7,4,1,5.3,1.1,5.5c0,0,0.6,0.7,0.7,0.8c0,0.1-0.2,1.8-0.2,1.7c-0.1,0.3-0.8,0.7-1.3,0.6c-0.1-0.1-1.4-1.2-1.5-1.8
				c-0.7,0.3-0.9,2-0.9,2.5c0,0.1-0.6,1-0.6,1.1c0,0,0,0.1-0.1,0.1l0.1,0.1c-0.1,0-0.4,0.2-0.4,0.2c0,0.3-0.2,0.3-0.2,0.5
				c0,0.2-0.7,0.7-1.4,0.9c-0.2-0.1-0.4-0.3-0.6-0.5c-0.2-0.2-0.2-0.4,0.1-0.5c-0.2-0.1-0.5-0.1-0.7-0.2c-0.5-0.2-1-0.5-1.4-0.7
				c-0.3-0.2-0.6-0.3-0.7-0.7c0,0-0.1-0.1-0.1-0.1c0,0-0.1,0.1-0.1,0.1c-0.1,0.7-0.2,1.5-0.1,2.2c0.2,1,0.4,1.9,1.1,2.7
				c0.1,0.2,0.3,0.3,0.5,0.5c-0.6-0.1-1.1-0.3-1.7-0.4c-0.7-0.2-1.4-0.4-1.8-1c-0.3,0.2-0.4,0.4-0.1,0.7c0.1,0.1,0.2,0.2,0.3,0.3
				c0.5,0.3,1,0.5,1.4,0.8c0.2,0.1,0.4,0.2,0.6,0.3c-0.3,0.3-0.6,0.5-0.9,0.8c0.2,0,0.3,0,0.4,0c1.1,0,2.3,0,3.4,0c0.3,0,0.6,0,1,0
				l0,0c1.1,0,14.4,0,15.5,0c0.4,0,0.7,0,1.1,0c-0.2-0.4-0.3-0.8-0.4-1.1c0-0.1-0.1-0.2,0-0.3c0.1-0.4,0.2-0.8,0.4-1.2
				c0-0.1,0.1-0.1,0.1-0.2c0-0.2,0-0.3,0-0.5c0.3,0,0.6-0.1,0.9-0.1c0,0,0,0,0,0c-0.3,0-0.6,0-0.8,0c0-0.4,0-0.8,0-1.1
				c0.1-0.2,0.2-0.3,0.3-0.4c-0.1-0.1-0.2-0.1-0.3-0.2c0.1-0.3,0.2-0.7,0.1-1c-0.1-0.4-0.2-0.8-0.2-1.2c0-0.2-0.1-0.3-0.2-0.5
				c-0.1-0.1-0.2-0.2-0.2-0.3c0-0.3,0-0.6,0-0.9c0-0.3-0.1-0.3-0.4-0.3c-0.1,0-0.2,0-0.3-0.1c-0.1,0.1-0.2,0.2-0.4,0.3
				c0.2,0,0.4,0.1,0.6,0.1c0.2,0,0.4,0.1,0.3,0.3c-0.1,0.5-0.3,1-0.4,1.5c0,0.2-0.1,0.4-0.4,0.4c-0.2,0-0.2,0.1-0.2,0.3
				c0.2,0,0.4-0.1,0.5-0.1c0.1,0.1,0.2,0.3,0.3,0.4c0.1,0.1,0.1,0.3,0.2,0.4c0,0.1,0,0.2-0.1,0.3c0.2,0.2,0,0.4-0.1,0.6
				c0,0.1-0.2,0-0.4,0.1c0.1,0.1,0.2,0.1,0.3,0.2c-0.1,0.4-0.1,0.4-0.6,0.5c-0.4,0-0.7,0.1-1.1,0.1c0,0,0,0,0,0.1c0.4,0,0.9,0,1.3,0
				c0.1,0.2,0.1,0.4,0.1,0.5c0,0,0,0.1,0,0.1c0,0-0.1,0-0.1,0c-0.2,0-0.4,0.1-0.7,0.1C36.2,54,36,54,35.9,54c-0.3,0-0.6,0-1,0
				c-0.1,0-0.2-0.1-0.2-0.2c0.1-0.2,0.2-0.3,0.2-0.5c0,0,0,0,0,0.1c0.1,0,0.2-0.1,0.4-0.2c-0.1,0-0.2,0-0.3,0
				c0.2-0.2,0.4-0.4,0.5-0.5c0-0.1-0.1-0.3-0.2-0.5c0.2,0,0.4,0,0.5,0c0-0.1-0.1-0.2-0.5-0.1c-0.2-0.2-0.3-0.3-0.4-0.5
				c0,0,0,0,0-0.1c0.3,0.1,0.5,0.1,0.8,0.2c0,0,0-0.1,0-0.1c-0.1,0-0.2-0.1-0.2-0.1c-0.1,0-0.2-0.1-0.3-0.1c0-0.1,0-0.2,0.1-0.3
				c0.2,0.1,0.3,0.1,0.4,0.2c0-0.2-0.1-0.3-0.1-0.4c0.1,0,0.1,0,0.2,0c-0.1-0.1-0.1-0.1-0.1-0.2c-0.3,0.3-0.6,0.4-0.8,0.7
				c-0.1-0.8-0.2-1.6-0.2-2.3c0.2,0,0.3,0,0.4,0c0,0,0-0.1,0-0.1c-0.1-0.1-0.3-0.2-0.4-0.3c0,0,0-0.1,0-0.2c0-0.1,0-0.2,0.1-0.3
				c0.1,0,0.2,0.1,0.3,0.1c0,0,0,0,0,0c0.2,0,0.3,0.1,0.5,0.1c0,0,0-0.1,0-0.1c0.3,0,0.6,0,0.9-0.1c0,0,0,0,0,0
				c-0.6,0-1.2-0.1-1.8-0.1c0-0.1,0-0.3-0.1-0.4c-0.1-0.6-0.1-1.3-0.2-1.9c0-0.1,0.1-0.3,0.1-0.4c0,0-0.1-0.1,0-0.1
				c0.1-0.2,0.2-0.4,0.3-0.5c0,0,0.1-0.1,0.1-0.1c0-0.3,0.2-0.2,0.4-0.2c0,0.1-0.1,0.1-0.1,0.2c0.1,0,0.2,0,0.3,0c0-0.1,0-0.2,0-0.4
				c-0.2,0-0.3,0-0.5,0c0-0.2-0.1-0.5-0.2-0.8c-0.2-0.2,0-0.5,0.1-0.8c0.1-0.3,0.3-0.5,0.4-0.8c-0.1,0-0.1,0-0.2,0.1
				c-0.1-0.1-0.1-0.2-0.2-0.3c-0.1-0.2-0.2-0.4-0.4-0.6c0,0,0,0,0,0c-0.4-0.1-0.8-0.4-1.2-0.2c-0.1,0-0.2,0-0.2,0
				c-0.2-0.1-0.3-0.2-0.5-0.3c-0.1-0.1-0.2-0.2-0.4-0.2c-0.3,0-0.5-0.2-0.5-0.4c0-0.2,0-0.4,0-0.7c0-0.4,0.1-0.8,0.2-1.2
				c0.1-0.6,0.2-1.3,0.6-1.8c0.1-0.2,0.3-0.2,0.4-0.2c0.1,0,0.3,0,0.4,0c0,0,0-0.1,0-0.1c-0.2,0-0.4,0-0.6,0.1
				c0.3-0.4,0.5-0.8,0.9-1c0.2-0.1,0.5-0.2,0.5-0.6c0,0,0.1-0.1,0.1-0.1c0.3-0.1,0.6-0.2,0.9-0.3c0.4-0.1,0.7-0.3,1-0.5
				c0.2-0.1,0.2-0.3,0.1-0.5c-0.1-0.2-0.1-0.4-0.1-0.6c0-0.4,0-0.8,0.1-1.2c0.1-0.4,0.3-0.6,0.7-0.6c0,0.1-0.1,0.3,0,0.4
				c0,0.1,0,0.2,0.1,0.3c0,0,0.2,0,0.3,0c0,0,0,0,0-0.1c-0.1,0-0.1-0.1-0.2-0.1c0-0.1,0-0.3,0-0.4c0.1,0,0.3,0,0.4,0.1
				c0.2,0.2,0.5,0.4,0.8,0.4c0.1,0,0.3,0.1,0.4,0.1c0,0,0-0.1,0-0.1c-0.3-0.2-0.5-0.3-0.8-0.5c-0.3-0.1-0.6-0.2-0.9-0.3
				c0.3-0.3,0.7-0.4,1.1-0.3c0.8,0.1,1.5,0.5,1.6,1c-0.1,0-0.1,0-0.2,0c0.1,0.1,0.2,0.1,0.3,0.2c-0.3,0.1-0.3,0.1-0.6-0.1
				c-0.1,0-0.1,0-0.2,0c0,0,0,0.1,0,0.1c0.1,0,0.1,0.1,0.2,0.1c0.1,0,0.2,0,0.3,0.1c0,0,0,0,0.1,0.1c0,0-0.1,0.1-0.1,0.1
				c0.1,0.1,0.3,0.2,0.3,0.3c0.1,0.5,0.3,1,0,1.4c0,0.1,0,0.2,0,0.2c0,0.2,0,0.3,0.2,0.3c0.3,0.1,0.5,0.2,0.8,0.3
				c0.2,0.1,0.4,0.2,0.7,0.3c0,0,0,0.1,0,0.1c-0.2,0-0.3,0-0.5,0c0.1,0.1,0.1,0.2,0.2,0.3c0.1-0.1,0.1-0.2,0.2-0.2
				c0.2,0.1,0.4,0.1,0.6,0.2c0.4,0.3,0.8,0.6,1.1,1c0.1,0.1,0.2,0.3,0.2,0.4c0.1,0.3,0.1,0.6,0.1,0.9c0.1,0.4,0.2,0.7,0.3,1.1
				c-0.2,0-0.3,0-0.4,0.1c0.1,0.1,0.2,0.1,0.3,0.1c0.1,0,0.1,0.1,0.1,0.2c0,0.6,0.1,1.2-0.1,1.9c-0.1,0.4-0.3,0.5-0.7,0.6
				c-0.1,0-0.3,0.1-0.5,0.1c-0.4,0-0.7-0.2-0.8-0.5c0-0.3,0-0.5,0-0.8c0-0.1,0.1-0.2,0.2-0.3c0.3-0.2,0.3-0.3,0.1-0.6
				c-0.2-0.3-0.5-0.6-0.8-1c0.1,0.3,0.1,0.5,0.1,0.7c0.1,1.1,0.1,2.2,0.3,3.3c0.1,0.3,0,0.6,0,0.8c0,0.2-0.1,0.4-0.2,0.7
				c-0.1,0.2-0.1,0.4-0.2,0.6c-0.2,0.5-0.1,0.9-0.1,1.4c0,0.3,0.2,0.6,0.2,1c0,0.5,0,0.5-0.4,0.6c0,0,0,0,0,0c0.1,0.2,0.4,0,0.4,0.3
				c0,0.1,0,0.3,0,0.4c0,0.1,0,0.1,0,0.2c0.4,0.5,0.4,0.6-0.1,0.9c-0.2,0.1-0.2,0.2-0.1,0.4c0.1,0.6,0.2,1.1,0.1,1.7
				c-0.1,0.2,0,0.5,0,0.8c0,0.1-0.1,0.2-0.1,0.3c0,0,0.1,0,0.1,0.1c0,0-0.1,0.1-0.1,0.1c0.1,0.2,0.1,0.4,0.2,0.6
				c0.1,0.2,0,0.2-0.2,0.2c-0.2,0-0.3-0.1-0.5-0.1c0,0,0,0.1,0,0.1c-0.1,0-0.2,0.1-0.3,0c-0.2,0-0.5,0-0.8,0
				c0.1,0.1,0.1,0.1,0.2,0.2c-0.2,0-0.3,0-0.4,0c0.1,0.1,0.2,0.1,0.3,0.1c0.3,0,0.6-0.1,0.9-0.1c0.1,0,0.3,0,0.4,0
				c0.2,0,0.5-0.1,0.6,0.1c0.1,0.1,0.1,0.3,0,0.4c-0.1,0.2-0.2,0.4-0.5,0.3c-0.2,0-0.4,0-0.6,0c-0.1,0-0.1,0.1-0.2,0.2
				c0,0,0,0.1,0,0.1c0.4-0.1,0.7-0.2,1,0.2c-0.1,0.1-0.1,0.1-0.2,0.2c-0.3,0.2-0.4,0.6-0.4,0.9c0,0.6,0,1.2,0,1.8c0,0.1,0,0.2,0,0.3
				c0.2,0,0.3,0,0.4,0c1.3,0,2.5,0,3.8,0c0.2,0,0.5,0.1,0.7-0.2c0,0,0.1,0,0.1,0c0.2,0,0.3,0,0.5,0c2,0,4,0,6,0
				c0.5,0,1.1-0.1,1.6-0.1c0.1,0,0.3,0,0.4,0c0.1,0,0.2,0.1,0.2,0.1c0.1,0.2,0.3,0.3,0.5,0.2C55.1,57.3,55.1,57.2,55,57.1z
				 M27.6,31.5C27.6,31.5,27.6,31.5,27.6,31.5c0-0.4,0-0.8,0.3-1.1C27.8,30.8,27.7,31.1,27.6,31.5z M35.3,54.3
				c0.4,0,0.7-0.1,1.1-0.1c0.1,0,0.2,0,0.3,0c0.1,0,0.2,0.1,0.1,0.2c0,0.1-0.1,0.2-0.2,0.2c-0.2,0-0.3,0.1-0.3,0.4
				c0.1-0.1,0.2-0.1,0.2-0.1c0,0,0,0,0.1,0c-0.2,0.3-0.4,0.7-0.6,1.1c-0.1-0.1-0.2-0.2-0.2-0.2c-0.1,0-0.1,0-0.2,0
				c0.1,0.1,0.1,0.1,0.2,0.2c-0.5,0.4-1,0.2-1.1-0.5c0.1,0,0.2,0,0.3,0c0,0-0.1-0.1-0.1-0.1c-0.2,0-0.2-0.1-0.3-0.3
				C34.6,54.1,34.6,54.3,35.3,54.3z"/>
			<path id="XMLID_42_" class="st2" d="M23,51.4C23,51.4,23,51.4,23,51.4C22.9,51.4,22.9,51.4,23,51.4z"/>
		</g>
		<path id="XMLID_40_" class="st2" d="M47.8,37.6c0,0.3,0,0.6,0,0.9c0,0.1,0,0.3-0.1,0.3c-0.2,0.1-0.2,0.3-0.2,0.4
			c0,0.2,0,0.4,0,0.6c0,0.1,0.1,0.1,0.1,0.1c0,0.1,0,0.2,0,0.3c0.1,0.4,0.2,0.8,0.4,1.2c0,0.1,0.1,0.3,0.2,0.4
			c0.1-0.1,0.2-0.1,0.3-0.2c-0.1-0.5,0.3-0.9,0.5-1.4c0.2-0.5,0.6-1,0.8-1.5c0.6-1.2,0.8-1.8,0.7-3.2c0-0.3,0-0.6,0-0.8
			c0,0,0,0-0.1,0c-0.1-0.2-0.2-0.4-0.2-0.5c-0.2,0.1-0.3,0.4-0.5,0.4c-0.3,0-0.4,0.1-0.5,0.4c-0.1,0.3-0.2,0.6-0.5,0.8
			c0,0,0,0,0,0.1c0,0.2-0.2,0.3-0.3,0.4c-0.2,0.2-0.3,0.4-0.4,0.6c0,0,0,0,0,0C48.2,37.5,48.2,37.5,47.8,37.6z"/>
		<path id="XMLID_39_" class="st2" d="M29.9,27.9c0,0.1,0,0.3,0,0.4c0.1,0.3,0.1,0.6,0.3,0.9c0.1,0.3,0,0.8,0.4,1c0,0,0,0,0,0
			c0,0-0.1,0-0.2,0.1c0.3,0.2,0.5,0.4,0.8,0.6c0.2,0.1,0.3,0,0.3-0.2c0-0.1,0-0.2,0-0.3c0.1-0.2,0.2-0.4,0.3-0.7
			c-0.2-0.2-0.2-0.2-0.1-0.4c0.1-0.2,0.3-0.3,0.2-0.6c0,0,0-0.1,0-0.1c0.1-0.2,0.1-0.3-0.1-0.5c-0.1-0.1,0-0.2-0.1-0.3
			c0-0.1,0-0.1,0-0.2c-0.2-0.3-0.2-0.5-0.1-0.8c0-0.2,0-0.4-0.1-0.5c-0.2-0.1-0.2-0.2-0.3-0.4c0-0.1,0-0.2,0-0.2
			c0-0.2-0.1-0.4-0.2-0.7c0.1,0.1,0.2,0.1,0.2,0.1c-0.3-0.3-0.2-0.5-0.1-0.8c0,0,0-0.1,0.1-0.2c0.1-0.3,0-0.5-0.2-0.6
			c-0.2,0.1,0.1,0.5-0.3,0.3c0,0.1,0,0.2-0.1,0.3c-0.2,0.6-0.4,1.2-0.7,1.7c-0.1,0.2-0.2,0.5-0.2,0.7C29.8,27.1,29.8,27.5,29.9,27.9
			C29.8,27.9,29.9,27.9,29.9,27.9z"/>
		<path id="XMLID_38_" class="st2" d="M38.9,44.1C39,44,39,44,39.1,44c-0.1,0-0.2-0.1-0.3-0.1c0,0.1,0,0.1-0.1,0.2c0,0-0.1,0-0.1,0
			c-0.1,0-0.2-0.1-0.2-0.1c0,0,0,0,0,0.1c0.1,0.1,0.2,0.1,0.2,0.2c-0.3,0.2-0.6,0.1-0.6-0.1c-0.2,0-0.4,0-0.6,0c0,0.1,0,0.3,0.3,0.1
			c0.1,0,0.2,0,0.3,0c0,0,0,0.1,0,0.1c-0.1,0-0.1,0.1-0.3,0.2c0.5,0,1-0.1,1.5-0.1C39,44.2,39,44.2,38.9,44.1z"/>
		<path id="XMLID_37_" class="st2" d="M37.9,47.2c-0.5-0.2-0.9,0-1.5,0.1c0.1,0.1,0.2,0.2,0.2,0.2c0.1,0,0.1-0.1,0.2-0.1
			C37.2,47.2,37.5,47.5,37.9,47.2z"/>
		<path id="XMLID_36_" class="st2" d="M35.8,52.6c0.3,0.1,0.7,0.1,1,0.2c0-0.1,0.1-0.1,0.1-0.3C36.6,52.5,36.2,52.5,35.8,52.6
			C35.9,52.5,35.8,52.6,35.8,52.6z"/>
		<path id="XMLID_35_" class="st2" d="M37.1,34.3c-0.1-0.1-0.2-0.2-0.3-0.3c0,0.1,0,0.1-0.1,0.2c-0.1-0.1-0.2-0.2-0.2-0.2
			c-0.1,0-0.2,0-0.4,0c-0.1,0-0.2,0-0.3,0c0,0,0,0.1,0,0.1C36.2,34.2,36.6,34.3,37.1,34.3C37,34.3,37.1,34.3,37.1,34.3z"/>
		<path id="XMLID_34_" class="st2" d="M35.1,35.2c-0.1,0.1-0.2,0.3-0.3,0.4c0.3,0.1,0.5,0,0.8-0.2C35.3,35.3,35.2,35.3,35.1,35.2z"
			/>
		<path id="XMLID_33_" class="st2" d="M37.5,32c-0.1-0.1-0.1-0.1-0.2-0.2c0.2,0,0.3,0,0.5,0c0,0,0,0,0,0c-0.2-0.1-0.4-0.1-0.6-0.2
			c0.1,0.2,0.1,0.2,0.2,0.4c-0.1,0.1-0.1,0.1-0.2,0.2C37.3,32.2,37.5,32.1,37.5,32z"/>
		<path id="XMLID_32_" class="st2" d="M34.7,39.1c-0.1-0.2-0.1-0.4-0.2-0.5c0,0,0,0-0.1,0c-0.1,0.2-0.1,0.3-0.2,0.5
			C34.4,39.1,34.6,39.1,34.7,39.1z"/>
		<path id="XMLID_31_" class="st2" d="M34.9,37.3c-0.2,0.1-0.3,0.2-0.5-0.1c0,0-0.1,0-0.1,0c0,0.1,0,0.3,0,0.4
			C34.9,37.5,34.9,37.5,34.9,37.3z"/>
		<path id="XMLID_30_" class="st2" d="M36.5,46.8c0,0,0.1,0,0.1,0C36.6,46.8,36.6,46.8,36.5,46.8C36.5,46.8,36.5,46.8,36.5,46.8z"/>
		<path id="XMLID_29_" class="st2" d="M37.3,46.8c0.1-0.2,0.2-0.3,0.3-0.5c0,0,0,0,0,0c-0.1,0.1-0.2,0.1-0.4,0.2
			C37.2,46.6,37.2,46.7,37.3,46.8c-0.2,0-0.4,0-0.6,0C36.9,46.8,37.1,46.8,37.3,46.8z"/>
		<path id="XMLID_28_" class="st2" d="M36.8,44.3c0.2,0.1,0.4,0.2,0.7,0.2c-0.1-0.2-0.2-0.3-0.3-0.4C37,44.2,36.9,44.2,36.8,44.3z"
			/>
		<path id="XMLID_27_" class="st2" d="M39.8,34.5c-0.3-0.3-0.6,0.2-0.9-0.1C39,34.6,39.5,34.7,39.8,34.5z"/>
		<path id="XMLID_26_" class="st2" d="M41.4,35C41.4,35,41.4,35,41.4,35c-0.1,0.2-0.1,0.4-0.1,0.6c0.4-0.1,0.1-0.3,0.2-0.5
			C41.5,35.1,41.5,35,41.4,35z"/>
		<path id="XMLID_25_" class="st2" d="M40,51.6c0,0,0-0.1,0-0.1c-0.3,0-0.6,0.1-0.9,0.1c0,0,0,0,0,0.1C39.4,51.6,39.7,51.6,40,51.6z
			"/>
		<path id="XMLID_24_" class="st2" d="M40,53.8c0.1,0.1,0.1,0.2,0.2,0.2c0,0,0.1-0.1,0.2-0.1c0,0,0-0.1,0-0.1
			c-0.1,0-0.1-0.1-0.2-0.1C40.1,53.7,40,53.7,40,53.8z"/>
		<path id="XMLID_23_" class="st2" d="M38.8,48.6c0,0,0-0.1,0-0.1c-0.2-0.1-0.5-0.1-0.7-0.2c0,0,0,0,0,0.1
			C38.3,48.4,38.6,48.5,38.8,48.6z"/>
		<path id="XMLID_22_" class="st2" d="M36.8,48.5c-0.1,0-0.2,0-0.2,0c-0.2,0.2-0.3,0.1-0.5,0.1c0.2,0.1,0.4,0.1,0.6,0.2
			c0-0.1-0.1-0.1-0.1-0.2C36.7,48.6,36.8,48.6,36.8,48.5C36.8,48.6,36.8,48.5,36.8,48.5z"/>
		<path id="XMLID_21_" class="st2" d="M40.8,34.5c-0.1-0.2-0.2-0.3-0.2-0.5c-0.1,0-0.1,0-0.1,0c0,0.1,0,0.1,0,0.2
			C40.6,34.3,40.6,34.5,40.8,34.5z"/>
		<path id="XMLID_20_" class="st2" d="M36.1,38.2C36.1,38.2,36.1,38.2,36.1,38.2c-0.3,0-0.5,0-0.8,0c0,0,0,0,0,0.1
			c0.2,0.1,0.4-0.2,0.6,0C36,38.3,36.1,38.3,36.1,38.2z"/>
		<path id="XMLID_19_" class="st2" d="M38.9,45.1c-0.3,0-0.6,0-0.9,0c0,0,0,0.1,0,0.1C38.3,45.2,38.6,45.1,38.9,45.1
			C38.9,45.1,38.9,45.1,38.9,45.1z"/>
		<path id="XMLID_18_" class="st2" d="M35.6,49.6c0.3-0.1,0.5-0.1,0.8-0.2c0,0,0,0,0-0.1c-0.3,0.1-0.5,0.1-0.8,0.2
			C35.6,49.5,35.6,49.5,35.6,49.6z"/>
		<path id="XMLID_17_" class="st2" d="M40.2,41c0,0.1,0,0.1,0,0.2c0.1,0,0.2,0,0.4,0.1c0,0,0-0.1,0-0.1C40.4,41,40.3,41,40.2,41z"/>
		<path id="XMLID_16_" class="st2" d="M36.8,42.6c-0.1,0.1-0.1,0.1-0.2,0.2c0.2,0,0.3,0.1,0.5,0.1C37,42.8,36.9,42.7,36.8,42.6z"/>
		<path id="XMLID_15_" class="st2" d="M35.2,40.4C35.2,40.4,35.2,40.4,35.2,40.4c-0.2,0-0.3,0-0.5,0.1c0,0.1,0.1,0.1,0.1,0.1
			C35,40.6,35.1,40.5,35.2,40.4z"/>
		<path id="XMLID_14_" class="st2" d="M38.7,43.2c-0.2,0-0.4,0-0.6,0c0,0,0,0.1,0,0.1C38.3,43.3,38.5,43.3,38.7,43.2
			C38.7,43.3,38.7,43.3,38.7,43.2z"/>
		<path id="XMLID_13_" class="st2" d="M39.3,44.7c0,0.1-0.1,0.2-0.1,0.3c0.2,0,0.3,0,0.4,0C39.4,45,39.3,45,39.3,44.7
			C39.4,44.7,39.3,44.7,39.3,44.7z"/>
		<path id="XMLID_12_" class="st2" d="M39.9,47c0.2,0,0.4-0.1,0.6-0.1c0,0,0,0,0,0C40.3,46.9,40.1,46.9,39.9,47
			C39.9,46.9,39.9,47,39.9,47z"/>
		<path id="XMLID_11_" class="st2" d="M39.8,47.9c-0.2-0.4,0.2-0.2,0.3-0.3c-0.2,0-0.3,0.1-0.6,0.1C39.7,47.8,39.7,47.8,39.8,47.9z"
			/>
		<path id="XMLID_10_" class="st2" d="M35.3,47.9c0.2-0.1,0.4-0.1,0.6-0.2c0,0,0,0,0,0c-0.2,0-0.4,0.1-0.6,0.1
			C35.3,47.8,35.3,47.8,35.3,47.9z"/>
		<path id="XMLID_9_" class="st2" d="M39.8,52C39.8,52,39.8,52,39.8,52c-0.2-0.1-0.4,0-0.6,0c0,0,0,0,0,0.1
			C39.5,52.1,39.6,52.1,39.8,52z"/>
		<path id="XMLID_8_" class="st2" d="M35.7,35.2C35.7,35.2,35.7,35.1,35.7,35.2c0-0.3-0.3-0.2-0.4-0.2c0,0,0,0,0,0.1
			c0.1,0,0.2,0,0.3,0C35.6,35.1,35.6,35.1,35.7,35.2z"/>
		<path id="XMLID_7_" class="st2" d="M39.1,52.3C39.1,52.3,39.1,52.2,39.1,52.3C39,52.3,39,52.4,39,52.6c0.1,0,0.1,0,0.2,0
			C39.1,52.5,39.1,52.4,39.1,52.3z"/>
		<path id="XMLID_6_" class="st2" d="M41.4,36.7C41.4,36.7,41.4,36.7,41.4,36.7c-0.1-0.1-0.2-0.2-0.3-0.3
			C41,36.8,41.3,36.7,41.4,36.7z"/>
		<path id="XMLID_5_" class="st2" d="M37.4,43.7c-0.2,0-0.3,0-0.5,0c0,0,0,0.1,0,0.1C37.1,43.8,37.3,43.8,37.4,43.7
			C37.4,43.7,37.4,43.7,37.4,43.7z"/>
	</g>
</g>
</svg>
