<?xml version="1.0" encoding="utf-8"?>
<!-- Generator: Adobe Illustrator 19.0.0, SVG Export Plug-In . SVG Version: 6.00 Build 0)  -->
<!DOCTYPE svg PUBLIC "-//W3C//DTD SVG 1.1//EN" "http://www.w3.org/Graphics/SVG/1.1/DTD/svg11.dtd">
<svg version="1.1" id="Layer_1" xmlns="http://www.w3.org/2000/svg" xmlns:xlink="http://www.w3.org/1999/xlink" x="0px" y="0px"
	 viewBox="0 0 75 75" style="enable-background:new 0 0 75 75;" xml:space="preserve">
<style type="text/css">
	.st0{fill:none;}
	.st1{fill:#FFFFFF;}
</style>
<rect id="XMLID_1_" class="st0" width="75" height="75"/>
<circle id="XMLID_22_" cx="37.5" cy="37.5" r="36.8"/>
<g id="XMLID_3_">
	<path id="XMLID_20_" class="st1" d="M16,33.5c-0.1-0.2-0.3-0.3-0.6-0.3c-0.2,0-0.4,0.1-0.5,0.2c-0.1,0.1-0.2,0.3-0.3,0.6
		c-0.1,0.3-0.1,0.7-0.1,1.2c0,0.5,0,1.1,0,1.9c0,0.7,0,1.4,0,1.9c0,0.5,0.1,0.9,0.1,1.2c0.1,0.3,0.2,0.5,0.3,0.6
		c0.1,0.1,0.3,0.2,0.5,0.2c0.2,0,0.3,0,0.4-0.1c0.1-0.1,0.2-0.2,0.3-0.4s0.1-0.5,0.1-0.8c0-0.3,0-0.8,0-1.3h2.8v0.8
		c0,0.8-0.1,1.4-0.3,1.9c-0.2,0.5-0.5,0.9-0.8,1.2c-0.3,0.3-0.7,0.5-1.2,0.6c-0.4,0.1-0.9,0.1-1.4,0.1c-0.8,0-1.5-0.1-2-0.3
		c-0.5-0.2-0.9-0.5-1.2-1c-0.3-0.5-0.5-1.1-0.6-1.8c-0.1-0.7-0.2-1.6-0.2-2.7c0-1.1,0.1-2,0.2-2.7c0.1-0.7,0.4-1.3,0.7-1.8
		c0.3-0.5,0.7-0.8,1.2-1s1.1-0.3,1.9-0.3c0.7,0,1.2,0.1,1.7,0.3c0.5,0.2,0.8,0.4,1.1,0.7c0.3,0.3,0.5,0.7,0.6,1.1
		c0.1,0.4,0.2,0.9,0.2,1.5v0.7h-2.8v-0.6C16.2,34.2,16.1,33.8,16,33.5z"/>
	<path id="XMLID_18_" class="st1" d="M22.6,34.1v1.3h0c0.2-0.5,0.4-0.9,0.7-1.2c0.3-0.3,0.7-0.4,1.1-0.4H25v2.6c-0.1,0-0.2,0-0.4,0
		c-0.1,0-0.2,0-0.3,0c-0.5,0-0.9,0.1-1.2,0.3c-0.3,0.2-0.4,0.6-0.4,1.2v4.6h-2.8v-8.4H22.6z"/>
	<path id="XMLID_15_" class="st1" d="M32.3,40c-0.1,0.5-0.2,1-0.5,1.4c-0.3,0.4-0.6,0.7-1.1,1c-0.5,0.2-1.1,0.4-1.9,0.4
		c-0.8,0-1.5-0.1-2-0.3c-0.5-0.2-0.8-0.5-1.1-0.9c-0.2-0.4-0.4-0.9-0.5-1.4c-0.1-0.5-0.1-1.1-0.1-1.7c0-0.6,0-1.1,0.1-1.6
		c0.1-0.5,0.2-1,0.5-1.4c0.3-0.4,0.6-0.8,1.1-1c0.5-0.3,1.1-0.4,1.9-0.4c0.8,0,1.5,0.1,2,0.4c0.5,0.2,0.8,0.6,1.1,1
		c0.2,0.4,0.4,0.9,0.5,1.4c0.1,0.5,0.1,1.1,0.1,1.7C32.4,38.9,32.4,39.5,32.3,40z M28.1,39.7c0,0.3,0.1,0.6,0.1,0.8
		c0.1,0.2,0.1,0.3,0.2,0.4c0.1,0.1,0.2,0.1,0.4,0.1s0.3,0,0.4-0.1c0.1-0.1,0.2-0.2,0.2-0.4c0.1-0.2,0.1-0.5,0.1-0.8
		c0-0.3,0-0.8,0-1.3c0-0.5,0-1,0-1.3c0-0.3-0.1-0.6-0.1-0.8c-0.1-0.2-0.1-0.3-0.2-0.4c-0.1-0.1-0.2-0.1-0.4-0.1s-0.3,0-0.4,0.1
		c-0.1,0.1-0.2,0.2-0.2,0.4c-0.1,0.2-0.1,0.5-0.1,0.8c0,0.3,0,0.8,0,1.3C28,38.9,28,39.3,28.1,39.7z"/>
	<path id="XMLID_13_" class="st1" d="M35.5,40.4c0,0.1,0.1,0.3,0.2,0.4c0.1,0.2,0.3,0.3,0.6,0.3c0.2,0,0.4-0.1,0.6-0.2
		c0.2-0.1,0.2-0.3,0.2-0.5c0-0.3-0.1-0.4-0.3-0.6c-0.2-0.1-0.5-0.3-0.8-0.4c-0.3-0.1-0.6-0.2-1-0.3c-0.3-0.1-0.7-0.3-1-0.5
		c-0.3-0.2-0.6-0.5-0.8-0.8c-0.2-0.3-0.3-0.8-0.3-1.3c0-0.4,0.1-0.7,0.2-1c0.1-0.3,0.3-0.6,0.6-0.8c0.3-0.2,0.6-0.4,1-0.6
		c0.4-0.1,0.9-0.2,1.5-0.2c2.1,0,3.2,0.9,3.2,2.7h-2.4c0-0.4-0.1-0.6-0.2-0.7c-0.1-0.1-0.3-0.2-0.6-0.2c-0.2,0-0.4,0.1-0.5,0.2
		c-0.1,0.1-0.2,0.3-0.2,0.5c0,0.2,0.1,0.4,0.3,0.5c0.2,0.1,0.5,0.2,0.8,0.3c0.3,0.1,0.6,0.2,1,0.3c0.3,0.1,0.7,0.3,1,0.4
		c0.3,0.2,0.6,0.5,0.8,0.8c0.2,0.3,0.3,0.8,0.3,1.3c0,0.4-0.1,0.8-0.2,1.1c-0.2,0.3-0.4,0.6-0.7,0.9c-0.3,0.3-0.6,0.4-1.1,0.6
		c-0.4,0.1-0.9,0.2-1.4,0.2c-1.2,0-2-0.2-2.5-0.7C33.2,41.6,33,40.9,33,40h2.5C35.4,40.1,35.5,40.3,35.5,40.4z"/>
	<path id="XMLID_11_" class="st1" d="M42.7,40.4c0,0.1,0.1,0.3,0.2,0.4c0.1,0.2,0.3,0.3,0.6,0.3c0.2,0,0.4-0.1,0.6-0.2
		c0.2-0.1,0.2-0.3,0.2-0.5c0-0.3-0.1-0.4-0.3-0.6c-0.2-0.1-0.5-0.3-0.8-0.4c-0.3-0.1-0.6-0.2-1-0.3c-0.3-0.1-0.7-0.3-1-0.5
		c-0.3-0.2-0.6-0.5-0.8-0.8c-0.2-0.3-0.3-0.8-0.3-1.3c0-0.4,0.1-0.7,0.2-1c0.1-0.3,0.3-0.6,0.6-0.8c0.3-0.2,0.6-0.4,1-0.6
		c0.4-0.1,0.9-0.2,1.5-0.2c2.1,0,3.2,0.9,3.2,2.7h-2.4c0-0.4-0.1-0.6-0.2-0.7c-0.1-0.1-0.3-0.2-0.6-0.2c-0.2,0-0.4,0.1-0.5,0.2
		c-0.1,0.1-0.2,0.3-0.2,0.5c0,0.2,0.1,0.4,0.3,0.5c0.2,0.1,0.5,0.2,0.8,0.3c0.3,0.1,0.6,0.2,1,0.3c0.3,0.1,0.7,0.3,1,0.4
		c0.3,0.2,0.6,0.5,0.8,0.8c0.2,0.3,0.3,0.8,0.3,1.3c0,0.4-0.1,0.8-0.2,1.1c-0.2,0.3-0.4,0.6-0.7,0.9c-0.3,0.3-0.6,0.4-1.1,0.6
		c-0.4,0.1-0.9,0.2-1.4,0.2c-1.2,0-2-0.2-2.5-0.7c-0.5-0.5-0.8-1.2-0.8-2.1h2.5C42.7,40.1,42.7,40.3,42.7,40.4z"/>
	<path id="XMLID_9_" class="st1" d="M54.5,31.4v2.4h-3.7v1.9h3.5V38h-3.5v4.6h-2.9V31.4H54.5z"/>
	<path id="XMLID_6_" class="st1" d="M58.1,31.4v2.1h-2.8v-2.1H58.1z M58.1,34.1v8.4h-2.8v-8.4H58.1z"/>
	<path id="XMLID_4_" class="st1" d="M59.7,34.1v-2.5h2.8v2.5h1.1V36h-1.1v4c0,0.2,0.1,0.4,0.2,0.5s0.3,0.1,0.5,0.1h0.4v1.9
		c-0.3,0-0.5,0-0.8,0c-0.3,0-0.5,0-0.7,0c-0.4,0-0.8,0-1.1-0.1c-0.3,0-0.5-0.1-0.7-0.3c-0.2-0.1-0.3-0.4-0.4-0.6
		c-0.1-0.3-0.1-0.7-0.1-1.1V36h-0.9v-1.9H59.7z"/>
</g>
</svg>
