<?xml version="1.0" encoding="utf-8"?>
<!-- Generator: Adobe Illustrator 19.0.0, SVG Export Plug-In . SVG Version: 6.00 Build 0)  -->
<!DOCTYPE svg PUBLIC "-//W3C//DTD SVG 1.1//EN" "http://www.w3.org/Graphics/SVG/1.1/DTD/svg11.dtd">
<svg version="1.1" id="Layer_1" xmlns="http://www.w3.org/2000/svg" xmlns:xlink="http://www.w3.org/1999/xlink" x="0px" y="0px"
	 viewBox="0 0 75 75" style="enable-background:new 0 0 75 75;" xml:space="preserve">
<style type="text/css">
	.st0{fill:none;}
	.st1{fill:#F9EE60;}
</style>
<rect id="XMLID_1_" class="st0" width="75" height="75"/>
<circle id="XMLID_84_" cx="37.5" cy="37.5" r="36.8"/>
<g id="XMLID_3_">
	<path id="XMLID_81_" class="st1" d="M37.5,66.2C21.6,66.2,8.8,53.4,8.8,37.6c0-15.9,12.9-28.8,28.8-28.8
		c15.8,0.1,28.6,12.8,28.6,28.6C66.3,53.3,53.4,66.2,37.5,66.2z M10.6,37.5c0.1,14.9,12,26.7,26.5,26.9c15,0.2,27.2-11.9,27.2-26.8
		c0-14.9-11.9-26.9-26.9-26.9C22.6,10.6,10.7,22.6,10.6,37.5z"/>
	<path id="XMLID_4_" class="st1" d="M37.5,63.8C23,63.9,11.2,52,11.2,37.5c0-14.6,11.9-26.4,26.4-26.3C52,11.2,63.8,23,63.8,37.5
		C63.8,52,52,63.9,37.5,63.8z M31.5,13.1c0,0.7,0,1.3,0,1.9c0.2,2.4,0.3,4.8,0.5,7.2c0,0.4,0.1,0.9,0.4,1.3c0.6,0.7,1.1,1.5,1.6,2.2
		c0.1,0.2,0.2,0.2,0.4,0.2c0.6-0.1,1.1-0.2,1.7-0.3c0.1,0,0.2-0.2,0.3-0.3c0.4-1.3,0.8-2.6,1.1-3.9c0-0.2,0.1-0.4,0-0.5
		c-0.2-0.9-0.4-1.8-0.7-2.6c-0.5-1.9-1.1-3.8-1.7-5.7C33.9,12.7,32.7,12.9,31.5,13.1z M56.5,53.9c0.8-1.1,1.6-2.2,2.4-3.2
		c-2.2-2.1-4.3-4-6.6-5.8c-0.1-0.1-0.2-0.1-0.3-0.1c-1.4-0.2-2.8-0.5-4.2-0.7c-0.1,0-0.2,0-0.3,0.1c-0.3,0.4-0.6,0.7-0.8,1.1
		c0.8,1.5,1.6,3,2.4,4.4c0.1,0.1,0.2,0.2,0.3,0.2c1.1,0.6,2.2,1.3,3.3,1.9C53.9,52.5,55.2,53.2,56.5,53.9z M15.5,25.3
		c2.1,1.8,4.1,3.6,6.2,5.3c0.1,0.1,0.2,0.1,0.3,0.1c1.6,0.3,3.2,0.5,4.9,0.7c0.1,0,0.2-0.1,0.3-0.2c0.3-0.4,0.5-0.7,0.7-1.1
		c0.1-0.2,0.1-0.3,0-0.5c-0.5-0.9-1-1.8-1.5-2.7c-0.1-0.1-0.2-0.3-0.3-0.3c-1.4-0.8-2.7-1.7-4.1-2.4c-1.4-0.8-2.8-1.5-4.3-2.3
		C17,23.1,16.3,24.2,15.5,25.3z M61.9,31.5c-0.2,0-0.2,0-0.3,0c-2.3,0.1-4.5,0.2-6.8,0.4c-0.5,0-1,0.1-1.4,0.4
		c-1.1,0.9-2.2,1.7-3.3,2.5c-0.5,0.3-0.9,0.7-0.6,1.3c0,0.1,0,0.1,0,0.2c0,0.3,0.1,0.4,0.4,0.4c1.2,0.3,2.4,0.7,3.6,1
		c0.2,0,0.3,0.1,0.5,0c2.8-0.7,5.6-1.5,8.3-2.4c0.2-0.1,0.2-0.1,0.2-0.3C62.2,33.9,62.1,32.7,61.9,31.5z M53.7,18.4
		c-1-0.8-2.1-1.5-3.1-2.2c-0.1,0.1-0.1,0.1-0.2,0.1c-1.9,2.1-3.7,4.2-5.5,6.3c-0.1,0.1-0.2,0.4-0.2,0.6c-0.2,1.2-0.4,2.5-0.6,3.7
		c-0.1,0.5-0.1,0.8,0.4,1c0.1,0,0.2,0.1,0.3,0.2c0.1,0.2,0.3,0.1,0.4,0c1.4-0.8,2.8-1.5,4.2-2.3c0.2-0.1,0.3-0.2,0.4-0.4
		c0.7-1.3,1.5-2.5,2.2-3.8C52.6,20.5,53.2,19.5,53.7,18.4z M14.3,44.2c2.2-0.2,4.5-0.3,6.7-0.5c0.4,0,0.7,0,1.1-0.3
		c1.1-0.9,2.2-1.7,3.3-2.5c0.5-0.4,0.5-0.4,0.4-1c0-0.2-0.1-0.3-0.4-0.4c-1.6-0.5-3.3-0.9-4.9-1.4c-0.1,0-0.3-0.1-0.4,0
		c-2.4,0.7-4.9,1.4-7.3,2.1c-0.2,0.1-0.2,0.1-0.2,0.3c0.2,0.9,0.3,1.8,0.5,2.7C13.3,44.2,13.3,44.2,14.3,44.2z M25,59.3
		c0.1-0.1,0.1-0.1,0.2-0.2c1.6-1.8,3.2-3.6,4.8-5.5c0.1-0.1,0.2-0.4,0.2-0.5c0.3-1.7,0.5-3.4,0.8-5.1c0-0.2,0.1-0.3-0.1-0.4
		c-0.3-0.1-0.4-0.5-0.8-0.2c-1.4,0.8-2.8,1.6-4.3,2.4c-0.2,0.1-0.3,0.2-0.4,0.4c-0.6,1-1.2,2.1-1.8,3.2c-0.7,1.2-1.3,2.5-2,3.7
		C22.8,57.8,23.9,58.5,25,59.3z M43.5,61.9c0-0.2,0-0.4,0-0.6c-0.1-2.3-0.3-4.6-0.5-6.9c0-0.4-0.1-0.8-0.4-1.1
		c-0.9-1.2-1.8-2.5-2.7-3.7c-0.2-0.3-0.5-0.2-0.7-0.2c-0.1,0-0.2,0.2-0.3,0.4c-0.5,1.7-1,3.4-1.5,5c-0.1,0.2-0.1,0.4,0,0.6
		c0.5,1.8,1,3.5,1.5,5.3c0.2,0.6,0.4,1.2,0.6,1.9C40.9,62.3,42.2,62.1,43.5,61.9z M47.7,31.4c0.2,0,0.3,0,0.5-0.1
		c1.3-0.2,2.6-0.4,3.9-0.6c0.7-0.1,1.4-0.2,1.9-0.8c0.3-0.3,0.6-0.5,0.9-0.8c1.4-1.3,2.8-2.5,4.2-3.8c0.1-0.1,0.1-0.3,0.1-0.3
		c-0.3-0.5-0.5-0.9-0.8-1.3c-0.1-0.2-0.2-0.2-0.4-0.1c-2.3,1-4.6,2-7,3c-0.2,0.1-0.3,0.2-0.4,0.4c-0.9,1.3-1.8,2.7-2.7,4
		C47.9,31.1,47.8,31.2,47.7,31.4z M12.8,33.5c0.1,0.1,0.1,0.1,0.1,0.1c2.4,0.9,4.8,1.9,7.2,2.8c0.2,0.1,0.4,0.1,0.6,0
		c1.6-0.3,3.2-0.6,4.8-1c0.1,0,0.1-0.1,0.2-0.1c-0.1-0.1-0.2-0.1-0.2-0.2c-1.2-0.8-2.3-1.7-3.5-2.5c-0.4-0.3-0.8-0.6-1.4-0.6
		c-0.2,0-0.5,0-0.7-0.1c-2.1-0.1-4.3-0.2-6.4-0.3c-0.1,0-0.3,0.1-0.3,0.2C13,32.4,12.9,33,12.8,33.5z M42.4,12.9
		c0,0.1-0.1,0.1-0.1,0.1c-1.2,2.6-2.2,5.3-3.1,8c0,0.1,0,0.3,0,0.4c0.2,1.3,0.5,2.5,0.7,3.8c0.1,0.6,0.1,0.6,0.7,0.7
		c0,0,0.1,0,0.1-0.1c0.9-1.2,1.7-2.3,2.5-3.5c0.1-0.1,0.1-0.3,0.2-0.4c0.2-2.8,0.4-5.6,0.5-8.4c0-0.1-0.1-0.3-0.2-0.3
		C43.3,13.1,42.9,13,42.4,12.9z M34.9,49.6c-0.1,0.1-0.1,0.2-0.2,0.2c-0.8,1.1-1.7,2.3-2.5,3.4c-0.4,0.5-0.7,0.9-0.7,1.6
		c0,0.2,0,0.4-0.1,0.6c-0.1,2-0.3,4.1-0.4,6.1c0,0.1,0.1,0.2,0.2,0.3c0.5,0.1,1.1,0.3,1.6,0.4c0.1,0,0.3-0.1,0.3-0.2
		c0.9-2.3,1.8-4.5,2.7-6.8c0-0.1,0-0.2,0-0.3c-0.2-1.1-0.5-2.2-0.7-3.3C35.1,50.9,35,50.3,34.9,49.6z M16.1,50.5
		c0.3,0.5,0.6,0.9,0.8,1.3c0.1,0.2,0.3,0.3,0.5,0.2c2.3-1,4.6-2,6.9-3.1c0.2-0.1,0.3-0.2,0.4-0.4c0.9-1.3,1.8-2.6,2.7-4
		c0-0.1,0.1-0.2,0.2-0.3c-0.2,0-0.3,0-0.4,0.1c-1.3,0.2-2.6,0.4-3.8,0.6c-0.5,0.1-0.9,0-1.3,0.4c-0.7,0.6-1.4,1.2-2.1,1.8
		C18.6,48.2,17.4,49.3,16.1,50.5z M43.6,47.8c0,0.2,0,0.2,0,0.3c0.2,1.4,0.5,2.7,0.7,4.1c0.1,0.4,0.1,0.8,0.4,1.2
		c0.7,0.8,1.4,1.7,2.2,2.6c1,1.1,2,2.2,3,3.3c0.5-0.3,0.9-0.6,1.4-0.8c0.2-0.1,0.2-0.2,0.1-0.4c-1-2.3-2.1-4.7-3.1-7
		c-0.1-0.2-0.2-0.3-0.4-0.4c-0.8-0.5-1.6-1-2.4-1.6C44.8,48.7,44.2,48.3,43.6,47.8z M49.1,40.7C49.1,40.7,49.1,40.7,49.1,40.7
		c1.2,0.9,2.4,1.7,3.5,2.6c0.1,0,0.1,0.1,0.2,0.1c0.5,0.1,0.9,0.1,1.4,0.1c1.4,0.1,2.8,0.2,4.1,0.3c1.1,0.1,2.2,0.1,3.3,0.1
		c0.1-0.5,0.2-0.9,0.3-1.4c-2.7-1.2-5.5-2.3-8.3-3.2c-0.1,0-0.2,0-0.3,0c-1.2,0.2-2.5,0.5-3.7,0.7C49.3,40.2,49.1,40.2,49.1,40.7z
		 M23.4,16.8C23.4,16.8,23.4,16.9,23.4,16.8c1.2,3.1,2.4,6,3.9,8.9c0.1,0.1,0.1,0.2,0.2,0.3c0.9,0.6,1.9,1.3,2.8,1.9
		c0.3-0.2,0.6-0.3,0.8-0.5c0.1-0.1,0.1-0.2,0.1-0.3c-0.1-0.8-0.3-1.7-0.4-2.5c-0.1-0.4-0.1-0.8-0.3-1c-1.6-1.9-3.1-3.7-4.7-5.6
		c-0.5-0.6-1-1.1-1.5-1.7C24,16.4,23.7,16.6,23.4,16.8z M30,13.6c-1.5,0.5-3,1.1-4.3,1.8c1.6,1.8,3.2,3.6,4.8,5.4
		C30.2,18.4,30.1,16,30,13.6z M18.7,20.9c2.2,1.2,4.2,2.3,6.3,3.4c-0.9-2.2-1.9-4.4-2.9-6.6C21,18.7,19.8,19.8,18.7,20.9z
		 M56.4,38.7c2,0.8,3.9,1.6,6,2.4c0.1-1.4,0.2-2.8,0.3-4.3C60.4,37.5,58.4,38.1,56.4,38.7z M36.7,12.4c0.6,2.1,1.2,4.1,1.8,6.1
		c0.8-1.9,1.6-3.9,2.4-5.9C39.5,12.6,38.1,12.5,36.7,12.4z M55,45.1c1.6,1.4,3.1,2.8,4.7,4.2c0.6-1.2,1.2-2.5,1.6-3.8
		C59.1,45.3,57,45.2,55,45.1z M49.3,15.3c-1.3-0.6-2.6-1.1-3.8-1.7c-0.1,2.2-0.2,4.2-0.3,6.3C46.5,18.5,47.9,17,49.3,15.3z
		 M15.3,49.2c1.5-1.3,2.9-2.6,4.3-3.9c-1.9,0.1-3.8,0.2-5.8,0.3C14.3,46.9,14.8,48,15.3,49.2z M19.2,30.5c-1.4-1.3-2.8-2.5-4.3-3.8
		c-0.5,1.2-0.9,2.4-1.4,3.6C15.4,30.3,17.3,30.4,19.2,30.5z M55.5,55c-1.7-0.9-3.4-1.8-5.1-2.7c0.8,1.8,1.5,3.5,2.3,5.2
		C53.6,56.6,54.5,55.8,55.5,55z M54.9,19.4c-0.9,1.7-1.8,3.4-2.7,5c1.7-0.7,3.4-1.5,5.2-2.2C56.5,21.3,55.7,20.3,54.9,19.4z
		 M45,61.4c1.2-0.5,2.3-0.9,3.5-1.4c-1.3-1.5-2.5-2.9-3.8-4.2C44.8,57.7,44.9,59.5,45,61.4z M20.6,56c0.9-1.7,1.8-3.3,2.6-5
		c-1.8,0.8-3.5,1.5-5.2,2.2C18.9,54.2,19.7,55.1,20.6,56z M55.9,30.3c1.8-0.1,3.6-0.2,5.5-0.3c-0.5-1.2-0.9-2.3-1.4-3.5
		C58.6,27.8,57.3,29,55.9,30.3z M17.7,37.2c-1.7-0.7-3.4-1.4-5.2-2.1c0,1.3,0,2.5,0,3.7C14.3,38.2,16,37.7,17.7,37.2z M26.4,60
		c1.1,0.4,2.1,0.9,3.2,1.3c0.1-1.8,0.2-3.5,0.3-5.2C28.7,57.4,27.6,58.7,26.4,60z M38.1,62.6c-0.5-1.7-1-3.3-1.5-5
		c-0.6,1.6-1.3,3.2-1.9,4.8C35.8,62.5,36.9,62.5,38.1,62.6z M37.4,31.5c0.4-0.8,0.8-1.6,1.2-2.3c0.3-0.5,0.3-0.9,0.3-1.4
		C38.8,27,38.8,27,38.1,27c-0.1,0-0.2,0-0.2,0c-0.2,0-0.3,0-0.3,0.3c-0.1,0.8-0.3,1.6-0.5,2.4C36.8,30.3,37,30.9,37.4,31.5z
		 M27.9,33.2c-0.2,0.5-0.3,0.9-0.5,1.3c0,0.1,0,0.2,0,0.2c0.3,0.2,0.6,0.4,0.9,0.4c0.6,0,1.2-0.1,1.8-0.1c0.5,0,0.9-0.1,1.4-0.1
		c-0.2-0.3-0.4-0.6-0.6-0.8c-0.1-0.1-0.2-0.2-0.3-0.3C29.6,33.6,28.8,33.4,27.9,33.2z M44.2,35.6c0.3,0,0.5,0.1,0.7,0.1
		c0.3,0,0.6,0.1,0.8,0c0.7-0.3,1.3-0.8,2-1.2c-0.2-0.5-0.4-0.9-0.5-1.4c0-0.1-0.1-0.2-0.2-0.2c-0.3,0.1-0.6,0-0.9,0.3
		c-0.1,0.2-0.3,0.3-0.4,0.5C45.2,34.5,44.7,35,44.2,35.6z M42.7,32.6c0.9-0.2,1.7-0.4,2.5-0.7c0.3-0.1,0.4-0.4,0.7-0.7
		c0,0,0-0.1-0.1-0.2c-0.3-0.4-0.6-0.7-1-1.1c-0.6,0.4-1.1,0.7-1.6,1.1c0,0-0.1,0.1-0.1,0.1C43,31.6,42.9,32.1,42.7,32.6z M35.2,31.9
		c0.1-0.7,0.2-1.3-0.2-1.9c-0.3-0.4-0.5-0.8-0.7-1.2c-0.2-0.4-0.5-0.8-0.7-1.2c-0.2,0.1-0.4,0.2-0.6,0.3c0.2,0.8,0.4,1.5,0.6,2.2
		c0,0.1,0.1,0.2,0.1,0.2C34.2,30.9,34.7,31.4,35.2,31.9z M44.8,45.1c-0.4-0.6-0.8-1.1-1.1-1.6c-0.4-0.6-1-0.7-1.6-0.9
		c0.2,0.8,0.5,1.6,0.7,2.3c0.1,0.5,0.4,0.9,0.9,1.1C44.1,45.7,44.4,45.4,44.8,45.1z M43.4,40.7c0.2,0.3,0.5,0.6,0.7,0.9
		c0,0.1,0.1,0.1,0.2,0.1c0.8,0.2,1.5,0.4,2.3,0.6c0.1,0,0.2,0,0.3-0.1c0.5-0.8,0.5-0.8-0.3-1.3c-0.1-0.1-0.3-0.2-0.4-0.2
		c-0.1,0-0.2-0.1-0.3-0.1C45.1,40.6,44.3,40.7,43.4,40.7z M40.6,31.2c0.4-0.3,0.8-0.6,1.2-0.9c0.1-0.1,0.1-0.1,0.1-0.2
		c0.1-0.5,0.3-1.1,0.4-1.6c0-0.1-0.1-0.3-0.2-0.3c-0.9-0.5-0.9-0.5-1.4,0.3c-0.1,0.1-0.2,0.2-0.2,0.3c-0.1,0.1-0.1,0.3-0.1,0.4
		C40.5,29.8,40.6,30.5,40.6,31.2z M27,38.4c0.5,0.1,1,0.2,1.5,0.3c0.1,0,0.3,0.1,0.4,0c0.4-0.2,0.9-0.5,1.3-0.7
		c-0.7-0.4-1.5-0.8-2.2-1.2c-0.3-0.2-0.6,0-0.9,0c0,0-0.1,0.1-0.1,0.2C27,37.4,27,37.9,27,38.4z M29.9,30.2c0.5,0.8,1,1.5,1.6,2.3
		c0,0.1,0.1,0.1,0.2,0.1c0.4,0.1,0.8,0.3,1.2,0.4c-0.2-0.6-0.4-1.2-0.5-1.8c0-0.1-0.1-0.1-0.1-0.1c-0.6-0.5-1.2-1-1.8-1.5
		C30.2,29.9,30.1,30,29.9,30.2z M44.5,38c0.4,0.2,0.8,0.4,1.2,0.7c0.5,0.3,0.9,0.4,1.5,0.3c0.7-0.1,0.7-0.1,0.8-0.8
		c0-0.1,0-0.2,0-0.4c-0.7-0.1-1.4-0.3-2.1-0.4c-0.1,0-0.1,0-0.2,0C45.4,37.6,45,37.8,44.5,38z M27.6,41.2c0.2,0.4,0.4,0.8,0.6,1.2
		c0,0.1,0.1,0.1,0.1,0.1c0.2-0.1,0.6-0.1,0.7-0.2c0.6-0.6,1-1.2,1.6-1.9c-0.5-0.1-1-0.1-1.5-0.2c-0.1,0-0.2,0-0.2,0.1
		C28.5,40.6,28.1,40.9,27.6,41.2z M30.5,45.4c0.4-0.3,0.8-0.6,1.2-0.8c0.1-0.1,0.2-0.1,0.2-0.2c0.2-0.5,0.3-0.9,0.4-1.4
		c-0.7,0.2-1.4,0.4-2.1,0.6c-0.4,0.1-0.7,0.4-0.9,0.8C29.8,44.7,30.1,45,30.5,45.4z M34.5,47.6c0-0.2,0.1-0.4,0.1-0.6
		c0-0.5-0.1-1.1-0.1-1.6c0-0.3,0-0.7,0-1.1c-0.4,0.3-0.7,0.5-1.1,0.8c-0.1,0.1-0.2,0.2-0.3,0.4c-0.1,0.4-0.2,0.7-0.3,1.1
		c0,0.2,0,0.3,0.2,0.4C33.5,47.2,33.9,47.4,34.5,47.6z M37.5,45.3c-0.4,0.8-0.9,1.5-1.3,2.3C36,47.8,36.1,48,36.4,48
		c0.3,0,0.7,0,1,0.1c0.3,0,0.6-0.1,0.6-0.5c0-0.3,0.1-0.5,0.2-0.8c0-0.1,0-0.2,0-0.3C37.9,46.1,37.7,45.7,37.5,45.3z M40,44.8
		c-0.1,0.5-0.1,1-0.2,1.5c0,0.1,0,0.1,0,0.2c0.2,0.3,0.4,0.7,0.6,1c0,0.1,0.2,0.1,0.3,0.1c0.4-0.1,0.8-0.3,1.2-0.5
		c-0.1-0.3-0.1-0.6-0.3-0.8C41.1,45.8,40.6,45.3,40,44.8z M36.8,52.1C36.8,52.1,36.9,52.1,36.8,52.1c0.3-0.9,0.6-1.7,0.8-2.6
		c-0.4,0-0.8,0-1.2-0.1C36.5,50.3,36.6,51.2,36.8,52.1z M33.6,48.9c-0.4-0.2-0.8-0.3-1.2-0.5c-0.2,0.9-0.3,1.7-0.5,2.5
		c0,0,0.1,0,0.1,0C32.6,50.3,33.1,49.6,33.6,48.9z M50.8,32.4C50.8,32.4,50.8,32.3,50.8,32.4c-0.8,0.1-1.5,0.2-2.3,0.3
		c0.1,0.4,0.3,0.7,0.4,1C49.6,33.3,50.2,32.8,50.8,32.4z M23.3,37.4C23.3,37.4,23.3,37.4,23.3,37.4c0.7,0.3,1.4,0.5,2.2,0.7
		c0-0.4,0-0.7,0-1.1C24.7,37.1,24,37.2,23.3,37.4z M46.2,29.2c0.3,0.3,0.5,0.5,0.7,0.8c0.4-0.6,0.8-1.2,1.3-1.8c0,0,0,0,0-0.1
		C47.5,28.5,46.8,28.8,46.2,29.2z M27.3,47.2C27.3,47.2,27.3,47.3,27.3,47.2c0.7-0.3,1.3-0.7,1.9-1c-0.3-0.2-0.5-0.5-0.7-0.7
		C28.1,46,27.7,46.6,27.3,47.2z M24.3,32.5C24.3,32.6,24.3,32.6,24.3,32.5c0.6,0.5,1.1,0.9,1.7,1.3c0.1-0.3,0.2-0.6,0.4-1
		C25.7,32.8,25,32.7,24.3,32.5z M35.9,44.9C35.9,44.9,35.9,44.9,35.9,44.9c0.3-0.4,0.5-0.8,0.7-1.2c0.1-0.2,0-0.8-0.2-0.9
		c0,0-0.2,0-0.2,0c-0.1,0.2-0.3,0.3-0.3,0.5C35.9,43.8,35.9,44.4,35.9,44.9z M24.7,43.2C24.7,43.2,24.7,43.2,24.7,43.2
		c0.7-0.1,1.4-0.2,2.1-0.3c-0.1-0.3-0.3-0.6-0.4-0.9C25.8,42.4,25.2,42.8,24.7,43.2z M42.5,50.5C42.5,50.5,42.5,50.5,42.5,50.5
		c0-0.7-0.1-1.3-0.3-2c-0.3,0.1-0.6,0.2-0.9,0.3C41.7,49.5,42.1,50,42.5,50.5z M45.6,46.4c-0.2,0.2-0.5,0.4-0.7,0.6
		c0.6,0.4,1.1,0.8,1.6,1.2c0,0,0,0,0,0C46.3,47.5,45.9,46.9,45.6,46.4z M43.7,33.9C43.7,33.9,43.7,33.9,43.7,33.9
		c-0.6,0.1-1.2,0.3-1.7,0.5c0.2,0.3,0.3,0.5,0.4,0.7C42.9,34.8,43.3,34.3,43.7,33.9z M31.5,41.5c0,0,0.1,0.1,0.1,0.1
		c0.4-0.2,0.9-0.3,1.3-0.5c0.1-0.1,0.2-0.2,0.3-0.3c0,0-0.1-0.2-0.2-0.3c-0.2,0-0.4,0-0.5,0.1C32.2,40.9,31.9,41.2,31.5,41.5z
		 M32.1,36.4c-0.5,0-1.1,0-1.6,0c0.3,0.2,0.6,0.4,0.9,0.5C32.1,37.2,32.1,37.2,32.1,36.4C32.2,36.5,32.2,36.5,32.1,36.4z M35.8,28.4
		c0.1-0.5,0.2-0.9,0.3-1.4c-0.3,0.1-0.6,0.1-1,0.2C35.3,27.6,35.5,28,35.8,28.4z M40.3,42.1c-0.4,0.5-0.3,0.9,0.6,1.6
		C40.7,43.1,40.6,42.6,40.3,42.1z M42.7,26.7c0.1-0.5,0.2-0.9,0.2-1.4c0,0,0,0-0.1,0c-0.3,0.4-0.5,0.7-0.8,1.1
		C42.3,26.5,42.5,26.6,42.7,26.7z M38.3,24.2C38.3,24.2,38.3,24.2,38.3,24.2c-0.2,0.4-0.3,0.9-0.4,1.3c0.2,0,0.4,0,0.7,0
		C38.5,25,38.4,24.6,38.3,24.2z M49.6,42.9C49.6,42.9,49.6,42.8,49.6,42.9c-0.3-0.3-0.6-0.5-1-0.8c-0.1,0.2-0.2,0.4-0.2,0.5
		C48.8,42.7,49.2,42.8,49.6,42.9z M49.4,38.7c0.4-0.1,0.7-0.1,1.1-0.2c0,0,0,0,0-0.1c-0.3-0.1-0.7-0.2-1-0.3
		C49.5,38.3,49.5,38.4,49.4,38.7z M42.7,39.2c0.3,0,0.6,0,0.9,0c0,0,0,0,0-0.1c-0.3-0.1-0.5-0.2-0.8-0.4
		C42.7,39,42.7,39.1,42.7,39.2z M29.3,32c-0.2-0.2-0.3-0.4-0.4-0.7c-0.1,0.2-0.2,0.3-0.3,0.5C28.9,31.9,29.1,32,29.3,32z M38.4,43.2
		c-0.3,0.3,0,0.6,0.1,0.8C38.6,43.8,38.8,43.5,38.4,43.2z M38.7,32.2c0.2,0,0.3,0.1,0.4,0.1c0-0.3,0-0.6,0-1
		C39,31.7,38.9,31.9,38.7,32.2z M32.3,38.8c-0.3-0.2-0.6,0-0.8,0.2C31.7,39,32,39.2,32.3,38.8z M34,42.7c0,0,0.1,0.1,0.1,0.1
		c0.2-0.2,0.3-0.4,0.5-0.6c-0.1,0-0.1-0.1-0.2-0.1C34.3,42.3,34.1,42.5,34,42.7z M40.6,33.1c0.1,0.1,0.2,0.1,0.3,0.2
		c0.1-0.2,0.1-0.4,0.2-0.6c0,0,0,0-0.1,0C41,32.8,40.8,32.9,40.6,33.1z"/>
</g>
</svg>
