<?xml version="1.0" encoding="utf-8"?>
<!-- Generator: Adobe Illustrator 19.0.0, SVG Export Plug-In . SVG Version: 6.00 Build 0)  -->
<!DOCTYPE svg PUBLIC "-//W3C//DTD SVG 1.1//EN" "http://www.w3.org/Graphics/SVG/1.1/DTD/svg11.dtd">
<svg version="1.1" id="Layer_1" xmlns="http://www.w3.org/2000/svg" xmlns:xlink="http://www.w3.org/1999/xlink" x="0px" y="0px"
	 viewBox="0 0 75 75" style="enable-background:new 0 0 75 75;" xml:space="preserve">
<style type="text/css">
	.st0{fill:none;}
	.st1{fill:#FFFFFF;}
</style>
<rect id="XMLID_1_" class="st0" width="75" height="75"/>
<circle id="XMLID_9_" class="st1" cx="37.5" cy="37.5" r="36.8"/>
<g id="XMLID_3_">
	<circle id="XMLID_8_" cx="33.4" cy="27.2" r="3.1"/>
	<path id="XMLID_7_" d="M28.9,39.5c-0.2,0-0.3,0-0.5-0.1c-0.5-0.1-0.8-0.5-1-0.9l-3.1-7.6c-0.3-0.8,0.1-1.8,0.9-2.1
		c0.8-0.3,1.8,0.1,2.1,0.9l2.3,5.7l9.5-6.4c0.3-0.2,0.6-0.3,0.9-0.3l6.9,0c0,0,0,0,0,0c0.7,0,1.3,0.4,1.5,1.1l2.2,6
		c0.3,0.8-0.1,1.8-0.9,2.1c-0.8,0.3-1.8-0.1-2.1-0.9L45.8,32l-5.3,0l-10.8,7.3C29.5,39.4,29.2,39.5,28.9,39.5z"/>
	<g id="XMLID_4_">
		<path id="XMLID_6_" d="M47.4,56.9c-0.4,0-0.8-0.2-1.1-0.5l-5.4-5.2c-0.4-0.4-0.6-0.9-0.5-1.5l1.2-6.3l-2.4-6.7
			c-0.3-0.8,0.1-1.8,1-2.1c0.8-0.3,1.8,0.1,2.1,1l2.5,7.1c0.1,0.3,0.1,0.6,0.1,0.8l-1.1,5.8l4.8,4.6c0.6,0.6,0.7,1.7,0,2.3
			C48.3,56.7,47.8,56.9,47.4,56.9z"/>
		<path id="XMLID_5_" d="M32.7,56.9c-0.9,0-1.6-0.7-1.6-1.5l-0.4-7.5c0-0.6,0.2-1.1,0.7-1.5l4.6-3l-1.3-3.6c-0.3-0.8,0.1-1.8,1-2.1
			c0.8-0.3,1.8,0.1,2.1,1l1.7,4.8c0.3,0.7,0,1.5-0.6,1.9L34,48.6l0.4,6.5C34.4,56.1,33.7,56.8,32.7,56.9
			C32.8,56.9,32.8,56.9,32.7,56.9z"/>
	</g>
</g>
</svg>
